<svg width="188" height="55" viewBox="0 0 188 55" fill="none" xmlns="http://www.w3.org/2000/svg">
<path d="M30.3729 15.5917H24.7432L16.6113 36.6974H21.7082L23.0288 33.1064H30.7204L29.3304 29.1679H24.2567L27.5465 20.0862L33.4079 36.6974H38.5048L30.3729 15.5917ZM115.931 36.6974V15.5917H120.449V32.7357H129.368V36.6974H115.931ZM141.995 36.6974V15.5917H146.536V32.7357H155.455V36.6974H141.995ZM90.8636 19.368C94.6168 19.368 97.6518 22.4029 97.6518 26.1561C97.6518 29.9093 94.6168 32.9442 90.8636 32.9442C87.1105 32.9442 84.0755 29.9093 84.0755 26.1561C84.0755 22.4029 87.1337 19.368 90.8636 19.368ZM90.8636 15.2441C84.8401 15.2441 79.9517 20.1325 79.9517 26.1561C79.9517 32.1797 84.8401 37.0681 90.8636 37.0681C96.8872 37.0681 101.776 32.1797 101.776 26.1561C101.776 20.1325 96.8872 15.2441 90.8636 15.2441ZM176.26 19.368C180.013 19.368 183.048 22.4029 183.048 26.1561C183.048 29.9093 180.013 32.9442 176.26 32.9442C172.506 32.9442 169.471 29.9093 169.471 26.1561C169.471 22.4029 172.506 19.368 176.26 19.368ZM176.26 15.2441C170.236 15.2441 165.348 20.1325 165.348 26.1561C165.348 32.1797 170.236 37.0681 176.26 37.0681C182.283 37.0681 187.172 32.1797 187.172 26.1561C187.172 20.1325 182.283 15.2441 176.26 15.2441ZM61.5102 15.5917H51.664V36.6974H56.1585V29.4227H61.5102C65.2634 29.4227 68.2984 26.2488 68.2984 22.4956C68.2984 18.7656 65.2634 15.5917 61.5102 15.5917ZM61.5102 25.2989H56.1585V19.7155H61.5102C62.9698 19.7155 64.1745 21.0361 64.1745 22.4956C64.1745 23.9552 62.9698 25.2989 61.5102 25.2989Z" fill="black"/>
<path d="M47.7949 43.0918C47.401 43.0918 47.0535 43.2772 46.845 43.5783C46.845 43.5783 45.8256 44.7367 45.2928 45.2928C42.976 47.6095 40.2885 49.4166 37.2999 50.6908C34.1954 52.0114 30.9056 52.6601 27.5 52.6601C24.0944 52.6601 20.8045 51.9882 17.7001 50.6908C14.7115 49.4166 12.0008 47.6095 9.70725 45.2928C7.39048 42.976 5.5834 40.2885 4.30918 37.2999C2.98863 34.1955 2.33993 30.9056 2.33993 27.5C2.33993 24.0944 3.01179 20.8046 4.30918 17.7001C5.56024 14.7115 7.36731 12.0008 9.68408 9.70725C12.0008 7.39048 14.6883 5.5834 17.6769 4.30918C20.7814 2.98863 24.0712 2.33993 27.4768 2.33993C30.8825 2.33993 34.1723 3.01179 37.2767 4.30918C39.4545 5.23589 41.4701 6.44061 43.3003 7.92334C43.2077 8.20135 43.1382 8.5257 43.1382 8.85004C43.1382 10.4254 44.4124 11.6997 45.9878 11.6997C47.5632 11.6997 48.8374 10.4254 48.8374 8.85004C48.8374 7.27464 47.5632 6.00042 45.9878 6.00042C45.5939 6.00042 45.2233 6.06992 44.8989 6.2321C40.1495 2.33993 34.1028 0 27.4768 0C12.302 0 0 12.302 0 27.5C0 42.698 12.302 55 27.5 55C36.0025 55 43.5783 51.1542 48.6289 45.0842C48.8374 44.8757 48.9764 44.5746 48.9764 44.2734C48.9532 43.6247 48.4204 43.0918 47.7949 43.0918Z" fill="black"/>
</svg>
