<svg width="402" height="75" viewBox="0 0 402 75" fill="none" xmlns="http://www.w3.org/2000/svg">
<path d="M22.7941 52.267C18.8113 48.5292 16.4216 43.3822 16.4216 37.4998C16.4216 31.6175 18.75 26.4704 22.549 22.7326C25.8579 19.4238 25.8579 14.2768 22.549 10.9679C19.2402 7.65912 14.0931 7.65912 10.7843 10.9679C4.22794 17.7694 0 27.1444 0 37.4998C0 47.8552 4.22794 57.2302 11.0294 64.0317C14.3382 67.3405 19.4853 67.3405 22.7941 64.0317C25.7966 60.7229 25.7966 55.5758 22.7941 52.267Z" fill="white"/>
<path d="M22.7942 22.7329C26.5319 18.75 31.7403 16.4216 37.5613 16.4216C43.3824 16.4216 48.5908 18.75 52.3285 22.549C55.6373 25.8579 60.7844 25.8579 64.0932 22.549C67.402 19.2402 67.402 14.0931 64.0932 10.7843C57.2917 4.22795 47.9167 0 37.5613 0C27.2059 0 17.8309 4.22794 11.0295 11.0294C7.72065 14.3382 7.72065 19.4853 11.0295 22.7941C14.3383 25.7353 19.4854 25.7353 22.7942 22.7329Z" fill="black"/>
<path d="M52.3285 52.267C48.5908 56.2499 43.3824 58.5783 37.5613 58.5783C31.7403 58.5783 26.5319 56.2499 22.7942 52.4509C19.4854 49.142 14.3383 49.142 11.0295 52.4509C7.72065 55.7597 7.72065 60.9067 11.0295 64.2156C17.8309 70.7719 27.2059 74.9999 37.5613 74.9999C47.9167 74.9999 57.2917 70.772 64.0932 63.9705C67.402 60.6617 67.402 55.5146 64.0932 52.2058C60.7844 49.2646 55.6373 49.2646 52.3285 52.267Z" fill="black"/>
<path d="M16.912 25.0612C21.4467 25.0612 25.1227 21.3851 25.1227 16.8504C25.1227 12.3157 21.4467 8.63965 16.912 8.63965C12.3773 8.63965 8.70117 12.3157 8.70117 16.8504C8.70117 21.3851 12.3773 25.0612 16.912 25.0612Z" fill="black"/>
<path d="M16.912 66.3606C21.4467 66.3606 25.1227 62.6845 25.1227 58.1498C25.1227 53.6151 21.4467 49.939 16.912 49.939C12.3773 49.939 8.70117 53.6151 8.70117 58.1498C8.70117 62.6845 12.3773 66.3606 16.912 66.3606Z" fill="black"/>
<path d="M103.708 49.7786C106.307 47.658 106.854 49.0261 108.975 51.0784C110.001 52.1045 113.148 54.2251 111.096 55.7985C106.923 59.2189 103.229 60.7923 97.7561 60.7923C85.7163 60.7923 77.0285 51.6256 77.5757 39.791C77.8494 34.3184 79.9016 29.3246 84.1429 25.9042C88.0422 22.7575 92.7623 21.1841 97.7561 21.4577C100.356 21.4577 102.476 22.005 104.802 22.7575C106.376 23.3047 107.949 24.0572 109.249 25.0833C111.848 27.204 110.548 28.2301 108.701 30.3507C108.154 30.898 107.949 31.3769 107.402 31.6505C106.376 32.6766 105.555 33.4975 104.255 32.403C101.655 30.556 97.9613 29.5298 94.8146 30.2823C84.3481 32.8818 84.827 51.4888 97.6877 51.4888C99.7399 51.8993 102.134 51.1468 103.708 49.7786ZM394.852 60.0398C393.005 60.0398 391.705 58.74 391.705 56.893V15.7114C391.705 13.8644 393.005 12.5647 394.852 12.5647H398.272C400.119 12.5647 401.419 13.8644 401.419 15.7114V56.893C401.419 58.74 400.119 60.0398 398.272 60.0398H394.852ZM376.792 55.3197C373.098 58.7401 369.473 60.5871 364.205 60.5871C353.465 60.5871 348.471 51.694 348.471 41.9801V25.2201C348.471 23.3731 349.771 22.0734 351.618 22.0734H355.038C356.885 22.0734 358.185 23.3731 358.185 25.2201V41.9801C358.185 47.4527 361.058 51.694 367.078 51.694C372.825 51.694 376.519 46.7002 376.519 41.5012V25.2201C376.519 23.3731 377.818 22.0734 379.665 22.0734H383.086C384.933 22.0734 386.233 23.3731 386.233 25.2201V56.893C386.233 58.74 384.933 60.0398 383.086 60.0398H380.213C378.366 60.0398 377.34 58.4664 377.066 56.893L376.792 55.3197ZM335.884 22.2786H342.451C344.298 22.2786 345.598 23.852 345.598 25.4254V27.546C345.598 29.393 344.298 30.6928 342.451 30.6928H335.884V56.893C335.884 58.74 334.585 60.0398 332.738 60.0398H329.317C327.47 60.0398 326.17 58.74 326.17 56.893V20.9788C326.17 13.1119 330.617 6.81841 338.757 6.06592H343.751C345.598 6.06592 346.898 7.63928 346.898 9.21267V11.3333C346.898 13.1803 345.598 14.4801 343.751 14.4801H341.152C337.252 14.4801 335.679 17.3532 335.679 21.0473V22.347H335.884V22.2786ZM312.01 22.2786H319.33C321.177 22.2786 322.476 23.5783 322.476 25.4254V27.546C322.476 29.393 321.177 30.6928 319.33 30.6928H312.01V46.6318C312.01 49.7786 313.583 51.352 316.73 51.352H318.303C320.15 51.352 321.45 52.6517 321.45 54.4987V56.8246C321.45 58.6716 320.15 59.9714 318.303 59.9714H313.857C305.99 59.4241 302.57 54.4987 302.57 46.6318V15.7114C302.57 13.8644 303.869 12.5647 305.716 12.5647H309.137C310.984 12.5647 312.284 13.8644 312.284 15.7114V22.2786H312.01ZM206.935 22.2786H214.255C216.102 22.2786 217.402 23.5783 217.402 25.4254V27.546C217.402 29.393 216.102 30.6928 214.255 30.6928H206.935V46.6318C206.935 49.7786 208.509 51.6256 211.655 51.6256H213.229C215.076 51.6256 216.376 52.9254 216.376 54.7724V56.893C216.376 58.74 215.076 60.0398 213.229 60.0398H211.108C202.489 60.0398 197.495 56.3458 197.495 46.7002V15.7798C197.495 13.9328 198.795 12.6331 200.642 12.6331H204.062C205.909 12.6331 207.209 13.9328 207.209 15.7798V22.347C207.209 22.2786 206.935 22.2786 206.935 22.2786ZM164.249 26.7251C167.669 23.3047 171.568 21.4577 176.288 21.4577C187.029 21.4577 192.57 30.0771 192.57 40.0647V56.893C192.57 58.74 191.27 60.0398 189.423 60.0398H186.002C184.155 60.0398 182.856 58.74 182.856 56.893V40.1331C182.856 34.6604 179.982 30.4191 173.963 30.4191C168.216 30.4191 164.522 35.1393 164.522 40.6119V56.893C164.522 58.74 163.223 60.0398 161.376 60.0398H157.955C156.108 60.0398 154.808 58.74 154.808 56.893V25.1517C154.808 23.3047 156.108 22.005 157.955 22.005H160.828C162.675 22.005 163.701 23.5784 163.975 25.1517L164.249 26.7251ZM269.597 26.7251C273.017 23.3047 276.917 21.4577 281.637 21.4577C292.377 21.4577 297.918 30.0771 297.918 40.0647V56.893C297.918 58.74 296.618 60.0398 294.771 60.0398H291.351C289.504 60.0398 288.204 58.74 288.204 56.893V40.1331C288.204 34.6604 285.331 30.4191 279.311 30.4191C273.565 30.4191 269.871 35.1393 269.871 40.6119V56.893C269.871 58.74 268.571 60.0398 266.724 60.0398H263.303C261.456 60.0398 260.157 58.74 260.157 56.893V25.1517C260.157 23.3047 261.456 22.005 263.303 22.005H266.177C268.024 22.005 269.05 23.5784 269.323 25.1517L269.597 26.7251ZM131.96 21.2525C120.399 21.2525 112.327 29.6667 112.327 41.1592C112.327 52.6517 120.468 61.0659 131.96 61.0659C143.726 61.0659 151.867 52.9254 151.867 41.1592C151.867 29.5982 143.521 21.2525 131.96 21.2525ZM227.936 44.5796C228.689 49.847 233.956 52.1729 238.95 52.1729C241.276 52.1729 243.944 51.6256 245.996 50.5995C246.27 50.3259 246.749 50.3259 247.022 50.0522C248.322 49.2997 249.348 49.0261 250.443 50.0522L252.29 51.8993L253.863 53.4726C255.436 55.5933 254.41 56.0721 252.563 57.1667C248.664 59.7662 243.67 61.0659 238.95 61.0659C226.363 61.0659 217.949 53.4726 217.949 40.8856C217.949 28.8458 226.363 20.9788 238.129 20.9788C250.443 20.9788 257.284 28.0249 257.557 40.4067C257.557 43.8271 257.831 44.8532 254.41 44.8532H227.936V44.5796ZM131.96 30.1455C137.98 30.1455 141.948 35.4129 141.948 41.1592C141.948 47.1791 138.254 51.8993 131.96 51.8993C125.667 51.8993 121.973 47.1791 121.973 41.1592C121.973 35.1393 125.94 30.1455 131.96 30.1455ZM228.142 36.4391H247.775C247.022 31.4453 243.055 29.5983 238.334 29.5983C233.409 29.5983 229.51 31.9925 228.142 36.4391Z" fill="black"/>
</svg>
