<svg width="64" height="64" viewBox="0 0 64 64" fill="none" xmlns="http://www.w3.org/2000/svg">
<path d="M49.0391 25.8854C48.8909 26.9063 48.2177 28.2932 47.4454 29.4991C46.471 31.0206 44.9247 32.0863 43.1551 32.4563L35.3597 34.0864C34.1068 34.3484 32.9707 35.0041 32.1177 35.9576L27.0064 41.671C26.0457 42.7447 25.3744 42.4887 25.3744 41.0485C25.3627 41.1019 22.8376 47.614 29.5295 51.4739C32.1008 52.957 35.802 52.4241 38.3732 50.941L51.997 43.0828C57.092 40.144 60.6893 35.1724 61.885 29.4174C61.9323 29.1897 61.9688 28.9613 62.0083 28.733L49.0391 25.8854Z" fill="url(#paint0_linear_1_55)"/>
<path d="M45.5059 18.0358C48.0771 19.5189 49.1277 21.7269 49.1276 24.6931C49.1276 25.0958 49.096 25.4936 49.0391 25.8854L54.5285 28.2434L62.0083 28.7329C62.966 23.1899 61.0891 17.4844 57.7242 12.9493C55.192 9.53637 51.9336 6.57463 48.0164 4.31512C44.8343 2.47968 41.5275 1.27038 38.2052 0.606812L34.4724 5.44082L33.2932 10.9915L45.5059 18.0358Z" fill="url(#paint1_linear_1_55)"/>
<path d="M1.56719 22.1036C1.5658 22.108 1.56966 22.1092 1.57112 22.1049C1.85917 21.2409 2.22036 20.2771 2.67128 19.2474C5.02669 13.8686 9.56572 10.2812 15.1498 8.45216C20.7339 6.62311 26.831 7.26425 31.9203 10.1998L33.293 10.9916L38.205 0.606824C22.5819 -2.51353 6.61456 6.66507 1.58706 22.0434C1.58465 22.0508 1.57591 22.0765 1.56719 22.1036Z" fill="url(#paint2_linear_1_55)"/>
<path d="M37.8396 50.9409C35.2684 52.424 32.1005 52.424 29.5293 50.9409C29.1803 50.7396 28.8512 50.5132 28.5401 50.2682L24.018 53.3771L20.1205 59.6753C24.4466 63.2755 30.0641 64.4329 35.6778 63.7892C39.9024 63.3048 44.0989 61.9665 48.0162 59.707C51.1983 57.8715 53.9 55.6151 56.1363 53.0724L53.8124 47.4257L50.0523 43.8966L37.8396 50.9409Z" fill="url(#paint3_linear_1_55)"/>
<path d="M28.5401 50.2682C26.5591 48.7077 25.3742 46.3143 25.3742 43.7508V43.4951V22.1448C25.3742 20.9374 25.7299 20.7321 26.7766 21.3359C25.1645 20.406 21.4404 17.214 16.8422 19.8662C14.271 21.3493 12.1537 24.6231 12.1537 27.5892V43.3057C12.1537 49.1833 15.198 55.3145 19.5888 59.2265C19.7625 59.3812 19.9423 59.5271 20.1205 59.6753L28.5401 50.2682Z" fill="url(#paint4_linear_1_55)"/>
<path d="M55.8209 10.6248C55.8178 10.6214 55.8147 10.6241 55.8178 10.6275C56.4227 11.3087 57.0776 12.1032 57.7447 13.0081C61.2296 17.7354 62.5317 23.7228 61.3252 29.4687C60.1186 35.2146 56.5143 40.1693 51.4251 43.1048L50.0523 43.8966L56.1363 53.0724C66.6528 41.1154 66.68 22.711 55.8631 10.672C55.8579 10.6663 55.8401 10.6459 55.8209 10.6248Z" fill="url(#paint5_linear_1_55)"/>
<path d="M12.6871 27.5893C12.6871 24.6231 14.271 21.8823 16.8423 20.3992C17.1913 20.1978 17.552 20.0263 17.92 19.8796L17.4861 14.4127L14.4372 8.15784C9.15342 10.1007 4.8794 14.1159 2.63056 19.2948C0.938193 23.1921 1.9584e-05 27.4921 0 32.0111C0 35.682 0.605098 39.1477 1.69106 42.354L7.74782 43.1666L12.6871 41.6779V27.5893Z" fill="url(#paint6_linear_1_55)"/>
<path d="M17.9201 19.8796C20.2632 18.9459 22.9304 19.1174 25.1526 20.3992L25.3742 20.527L43.165 30.7888C44.413 31.5086 44.2996 32.217 42.889 32.5119L43.9153 32.2973C45.2658 32.0149 46.4996 31.3248 47.4431 30.3191C49.0653 28.5899 49.6609 26.5036 49.6609 24.6931C49.6609 21.727 48.077 18.9861 45.5057 17.503L31.882 9.64479C26.787 6.70596 20.6787 6.0793 15.0922 7.92227C14.8712 7.99516 14.6549 8.07781 14.4373 8.15783L17.9201 19.8796Z" fill="url(#paint7_linear_1_55)"/>
<path d="M38.6444 63.3048C38.6489 63.3039 38.648 63.2999 38.6436 63.3008C37.7506 63.4835 36.7345 63.653 35.6164 63.7777C29.7762 64.4291 23.935 62.5621 19.5575 58.6452C15.1799 54.7283 12.6871 49.1325 12.6871 43.2615L12.6871 41.6779L1.6911 42.354C6.79779 57.4313 22.7379 66.6571 38.5823 63.3177C38.5899 63.3161 38.6165 63.3108 38.6444 63.3048Z" fill="url(#paint8_linear_1_55)"/>
<defs>
<linearGradient id="paint0_linear_1_55" x1="40.1202" y1="47.5399" x2="46.4152" y2="25.6136" gradientUnits="userSpaceOnUse">
<stop stop-color="#1724C9"/>
<stop offset="1" stop-color="#1C64F2"/>
</linearGradient>
<linearGradient id="paint1_linear_1_55" x1="54.6189" y1="20.8006" x2="38.0595" y2="4.29961" gradientUnits="userSpaceOnUse">
<stop stop-color="#1C64F2"/>
<stop offset="1" stop-color="#0092FF"/>
</linearGradient>
<linearGradient id="paint2_linear_1_55" x1="32.3289" y1="10.0423" x2="7.34863" y2="11.6208" gradientUnits="userSpaceOnUse">
<stop stop-color="#0092FF"/>
<stop offset="1" stop-color="#45B2FF"/>
</linearGradient>
<linearGradient id="paint3_linear_1_55" x1="30.6395" y1="57.3253" x2="53.0731" y2="51.2718" gradientUnits="userSpaceOnUse">
<stop stop-color="#1C64F2"/>
<stop offset="1" stop-color="#0092FF"/>
</linearGradient>
<linearGradient id="paint4_linear_1_55" x1="14.5375" y1="31.3654" x2="30.4648" y2="47.8694" gradientUnits="userSpaceOnUse">
<stop stop-color="#1724C9"/>
<stop offset="1" stop-color="#1C64F2"/>
</linearGradient>
<linearGradient id="paint5_linear_1_55" x1="50.9008" y1="43.2713" x2="62.0138" y2="20.8691" gradientUnits="userSpaceOnUse">
<stop stop-color="#0092FF"/>
<stop offset="1" stop-color="#45B2FF"/>
</linearGradient>
<linearGradient id="paint6_linear_1_55" x1="10.7277" y1="18.262" x2="4.78107" y2="40.6131" gradientUnits="userSpaceOnUse">
<stop stop-color="#1C64F2"/>
<stop offset="1" stop-color="#0092FF"/>
</linearGradient>
<linearGradient id="paint7_linear_1_55" x1="41.0862" y1="17.1988" x2="19.3554" y2="22.6094" gradientUnits="userSpaceOnUse">
<stop stop-color="#1724C9"/>
<stop offset="1" stop-color="#1C64F2"/>
</linearGradient>
<linearGradient id="paint8_linear_1_55" x1="12.8135" y1="42.7133" x2="26.6651" y2="63.5493" gradientUnits="userSpaceOnUse">
<stop stop-color="#0092FF"/>
<stop offset="1" stop-color="#45B2FF"/>
</linearGradient>
</defs>
</svg>
