<svg width="244" height="167" viewBox="0 0 244 167" fill="none" xmlns="http://www.w3.org/2000/svg">
<path d="M25 74.4H42.4L60.2 92.2H42.4V110L25 92.2V74.4ZM25 57H60.2V74.4H42.4L25 57Z" fill="white"/>
<path d="M119.16 68.8V97H111.32V81.44L106 97H99.44L94.08 81.32V97H86.24V68.8H95.72L102.8 87.12L109.72 68.8H119.16ZM134.063 97.28C131.823 97.28 129.809 96.8133 128.023 95.88C126.263 94.9467 124.876 93.6133 123.863 91.88C122.849 90.1467 122.343 88.1067 122.343 85.76C122.343 83.44 122.849 81.4133 123.863 79.68C124.903 77.9467 126.303 76.6133 128.063 75.68C129.849 74.7467 131.863 74.28 134.103 74.28C136.343 74.28 138.343 74.7467 140.103 75.68C141.889 76.6133 143.289 77.9467 144.303 79.68C145.343 81.4133 145.863 83.44 145.863 85.76C145.863 88.08 145.343 90.12 144.303 91.88C143.289 93.6133 141.889 94.9467 140.103 95.88C138.316 96.8133 136.303 97.28 134.063 97.28ZM134.063 90.48C135.156 90.48 136.063 90.08 136.783 89.28C137.529 88.4533 137.903 87.28 137.903 85.76C137.903 84.24 137.529 83.08 136.783 82.28C136.063 81.48 135.169 81.08 134.103 81.08C133.036 81.08 132.143 81.48 131.423 82.28C130.703 83.08 130.343 84.24 130.343 85.76C130.343 87.3067 130.689 88.48 131.383 89.28C132.076 90.08 132.969 90.48 134.063 90.48ZM162.293 90.32V97H158.893C153.159 97 150.293 94.16 150.293 88.48V81.08H147.533V74.56H150.293V69.12H158.173V74.56H162.253V81.08H158.173V88.6C158.173 89.2133 158.306 89.6533 158.572 89.92C158.866 90.1867 159.346 90.32 160.013 90.32H162.293ZM169.848 72.48C168.462 72.48 167.342 72.1067 166.488 71.36C165.662 70.5867 165.248 69.6267 165.248 68.48C165.248 67.3067 165.662 66.3333 166.488 65.56C167.342 64.7867 168.462 64.4 169.848 64.4C171.208 64.4 172.302 64.7867 173.128 65.56C173.982 66.3333 174.408 67.3067 174.408 68.48C174.408 69.6267 173.982 70.5867 173.128 71.36C172.302 72.1067 171.208 72.48 169.848 72.48ZM173.728 74.56V97H165.888V74.56H173.728ZM188.633 97.28C186.393 97.28 184.38 96.8133 182.593 95.88C180.833 94.9467 179.446 93.6133 178.433 91.88C177.42 90.1467 176.913 88.1067 176.913 85.76C176.913 83.44 177.42 81.4133 178.433 79.68C179.473 77.9467 180.873 76.6133 182.633 75.68C184.42 74.7467 186.433 74.28 188.673 74.28C190.913 74.28 192.913 74.7467 194.673 75.68C196.46 76.6133 197.86 77.9467 198.873 79.68C199.913 81.4133 200.433 83.44 200.433 85.76C200.433 88.08 199.913 90.12 198.873 91.88C197.86 93.6133 196.46 94.9467 194.673 95.88C192.886 96.8133 190.873 97.28 188.633 97.28ZM188.633 90.48C189.726 90.48 190.633 90.08 191.353 89.28C192.1 88.4533 192.473 87.28 192.473 85.76C192.473 84.24 192.1 83.08 191.353 82.28C190.633 81.48 189.74 81.08 188.673 81.08C187.606 81.08 186.713 81.48 185.993 82.28C185.273 83.08 184.913 84.24 184.913 85.76C184.913 87.3067 185.26 88.48 185.953 89.28C186.646 90.08 187.54 90.48 188.633 90.48ZM218.303 74.36C220.889 74.36 222.943 75.2267 224.463 76.96C225.983 78.6667 226.743 80.9867 226.743 83.92V97H218.903V84.96C218.903 83.68 218.569 82.68 217.903 81.96C217.236 81.2133 216.343 80.84 215.223 80.84C214.049 80.84 213.129 81.2133 212.463 81.96C211.796 82.68 211.463 83.68 211.463 84.96V97H203.623V74.56H211.463V77.76C212.156 76.7467 213.089 75.9333 214.263 75.32C215.436 74.68 216.783 74.36 218.303 74.36Z" fill="white"/>
</svg>
