<svg width="244" height="167" viewBox="0 0 244 167" fill="none" xmlns="http://www.w3.org/2000/svg">
<path d="M25 74.4H42.4L60.2 92.2H42.4V110L25 92.2V74.4ZM25 57H60.2V74.4H42.4L25 57Z" fill="white"/>
<path d="M93.5 94.6V68.3H109.7V73.6H99.6V80.5H109.7V85.7H99.6V94.6H93.5Z" fill="white"/>
<path d="M113.3 94.6V76.4H119.4V80.5C119.5 79.2 120.1 78.1 121 77.2C121.9 76.4 123.1 76 124.3 76C125.1 76 125.5 76.4 125.9 76.4V81.7H124.3C122.9 81.5 121.5 82.2 120.6 83.3C119.8 84.1 119.4 85.7 119.4 87.7V94.6H113.3Z" fill="white"/>
<path d="M137.2 90.6C138.5 90.8 139.8 90.1 140.4 89C141.2 88.1 141.6 87 141.6 85.8C141.6 84.5 141.2 83.2 140.4 82.2C139.6 81.3 138.4 80.9 137.2 81C136 81 134.8 81.4 133.9 82.2C133.1 83.2 132.6 84.5 132.7 85.8C132.7 87 133.1 88.2 133.9 89C134.7 90 135.9 90.6 137.2 90.6ZM135.6 95.4C133.1 95.4 130.8 94.4 129.1 92.6C127.7 90.6 127 88.2 127.1 85.7C127.1 84.1 127.4 82.4 127.9 80.9C128.6 79.4 129.8 78.2 131.1 77.2C132.4 76.4 134 76 135.6 76C136.8 76.1 138.1 76.3 139.2 76.8C140.2 77.3 140.9 78.2 141.2 79.2V76.3H147.3V94.5H141.2V92.1C140.7 93 140 93.8 139.2 94.5C138.1 95.1 136.9 95.3 135.6 95.4Z" fill="white"/>
<path d="M151.8 94.6001V76.4001H157.5V79.3001C157.9 78.1001 158.7 77.7001 159.5 76.9001C160.5 76.4001 161.6 76.2001 162.8 76.1001C165.6 76.1001 167.7 77.3001 168.5 79.4001C169.3 78.6001 170.1 77.8001 170.9 77.0001C172.1 76.5001 173.3 76.3001 174.6 76.2001C179 76.2001 181.1 78.6001 181.1 83.5001V94.8001H175.4V84.5001C175.4 83.5001 175.1 82.5001 174.6 81.7001C174 81.2001 173.3 80.9001 172.5 80.9001C171.5 80.8001 170.6 81.3001 170.1 82.1001C169.5 83.1001 169.2 84.2001 169.3 85.3001V94.6001H163.6V84.5001C163.6 83.5001 163.3 82.5001 162.8 81.7001C162.3 81.2001 161.5 80.9001 160.8 80.9001C159.9 81.0001 159 81.4001 158.4 82.1001C157.8 83.1001 157.5 84.2001 157.6 85.3001V94.6001H151.8Z" fill="white"/>
<path d="M189.9 83.7001H197.6C197.6 82.7001 197.3 81.7001 196.8 80.9001C196 80.1001 195.2 80.1001 194 80.1001C192.9 80.1001 191.8 80.4001 190.8 80.9001C190.2 81.7001 189.9 82.7001 189.9 83.7001ZM203.2 84.5001V87.3001H189.8C189.8 88.4001 190.2 89.4001 191 90.1001C191.8 90.7001 192.8 91.0001 193.8 90.9001C195.8 90.9001 196.6 90.5001 197.4 89.3001H203.1C202.7 91.2001 201.5 92.8001 199.9 93.7001C198 94.7001 195.9 95.3001 193.8 95.3001C190.6 95.3001 188.1 94.5001 186.5 92.5001C184.7 90.7001 183.6 88.2001 183.6 85.6001C183.6 82.9001 184.6 80.3001 186.5 78.3001C188.1 76.7001 190.5 75.9001 193.8 75.9001C196.3 75.8001 198.8 76.7001 200.7 78.3001C202.4 80.0001 203.3 82.2001 203.2 84.5001Z" fill="white"/>
<path d="M206.5 94.6V76.4H212.2V80.5C212.6 79.3 213.3 78.2 214.2 77.2C215.1 76.4 216.2 76 217.4 76C217.8 76 218.6 76.4 219 76.4V81.7H217C215.7 81.6 214.5 82.3 213.8 83.3C212.6 84.1 212.2 85.7 212.2 87.7V94.6H206.5Z" fill="white"/>
</svg>
