<svg width="182" height="50" viewBox="0 0 182 50" fill="none" xmlns="http://www.w3.org/2000/svg">
<g clip-path="url(#clip0_50_2)">
<path d="M58.8998 22.1V34H53.6998V23.5C53.6998 22.8 53.4998 22.3 53.1998 21.7C52.8998 21.2 52.3998 20.7 51.8998 20.4C51.3998 20.1 50.6998 19.9 50.0998 19.9C49.3998 19.9 48.7998 20.1 48.2998 20.4C47.7998 20.7 47.2998 21.1 46.9998 21.7C46.6998 22.2 46.4998 22.8 46.4998 23.5V34H41.2998V6H46.4998V16.7C47.0998 16.1 47.8998 15.6 48.6998 15.3C49.5998 15 50.4998 14.8 51.3998 14.8C52.7998 14.8 53.9998 15.1 55.0998 15.8C56.1998 16.4 57.0998 17.4 57.7998 18.5C58.5998 19.5 58.8998 20.8 58.8998 22.1ZM74.3998 15.3H79.9998L69.5998 43.3H63.9998L67.3998 34L60.5998 15.3H66.2998L70.0998 27L74.3998 15.3ZM95.6998 15.3H100.9V34.2C100.9 35.6 100.6 36.8 100.1 37.9C99.4998 39 98.6998 40 97.7998 40.8C96.7998 41.6 95.6998 42.2 94.3998 42.6C93.0998 43 91.6998 43.2 90.3998 43.2C89.0998 43.2 87.7998 42.9 86.4998 42.4C85.2998 41.9 84.1998 41.2 83.1998 40.3C82.1998 39.4 81.4998 38.3 80.9998 37.2L85.7998 35C86.0998 35.6 86.3998 36.2 86.8998 36.6C87.3998 37 87.8998 37.4 88.4998 37.6C89.0998 37.8 89.6998 38 90.3998 38C91.0998 38 91.6998 37.9 92.3998 37.8C92.9998 37.6 93.5998 37.4 94.0998 37.1C94.5998 36.8 94.9998 36.4 95.2998 35.9C95.5998 35.4 95.6998 34.9 95.6998 34.2V32C95.0998 32.7 94.3998 33.3 93.5998 33.7C92.7998 34.1 91.7998 34.3 90.6998 34.3C89.2998 34.3 87.9998 34 86.7998 33.5C85.5998 33 84.5998 32.3 83.5998 31.4C82.6998 30.5 81.9998 29.5 81.4998 28.3C80.9998 27.1 80.6998 25.9 80.6998 24.5C80.6998 23.1 80.9998 21.9 81.4998 20.7C81.9998 19.5 82.6998 18.5 83.5998 17.6C84.4998 16.7 85.5998 16 86.7998 15.5C87.9998 15 89.2998 14.7 90.6998 14.7C91.7998 14.7 92.6998 14.9 93.5998 15.4C94.3998 15.8 95.0998 16.4 95.6998 17.1V15.3ZM90.7998 29.5C91.6998 29.5 92.3998 29.3 93.0998 28.8C93.7998 28.4 94.2998 27.7 94.6998 27C95.0998 26.3 95.2998 25.4 95.2998 24.6C95.2998 23.7 95.0998 22.9 94.6998 22.2C94.2998 21.5 93.7998 20.9 93.0998 20.4C92.3998 20 91.5998 19.7 90.7998 19.7C89.9998 19.7 89.1998 19.9 88.4998 20.4C87.7998 20.8 87.1998 21.5 86.7998 22.2C86.3998 22.9 86.1998 23.8 86.1998 24.6C86.1998 25.5 86.3998 26.3 86.7998 27.1C87.1998 27.8 87.7998 28.4 88.4998 28.9C89.0998 29.3 89.9998 29.5 90.7998 29.5ZM105 34V15.3H110.2V16.7C110.8 16.1 111.6 15.6 112.4 15.3C113.3 15 114.2 14.8 115.1 14.8C115.8 14.8 116.5 14.9 117.2 15.1L115.1 20.3C114.7 20.1 114.2 20 113.7 20C113 20 112.4 20.2 111.9 20.5C111.4 20.8 110.9 21.2 110.6 21.8C110.3 22.3 110.1 22.9 110.1 23.6V34H105ZM131.9 15.3H137.1V34H131.8L131.6 32.1C131.1 32.8 130.5 33.4 129.7 33.9C128.9 34.3 128 34.6 127 34.6C125.6 34.6 124.3 34.3 123 33.8C121.8 33.3 120.7 32.6 119.8 31.6C118.9 30.7 118.1 29.6 117.6 28.4C117.1 27.2 116.8 25.9 116.8 24.5C116.8 23.2 117 21.9 117.5 20.8C118 19.7 118.7 18.6 119.6 17.7C120.5 16.8 121.5 16.1 122.7 15.6C123.9 15.1 125.1 14.9 126.5 14.9C127.7 14.9 128.7 15.1 129.6 15.6C130.5 16.1 131.3 16.7 132 17.5L131.9 15.3ZM126.9 29.5C127.8 29.5 128.5 29.3 129.2 28.8C129.9 28.4 130.5 27.8 130.8 27C131.2 26.2 131.4 25.4 131.4 24.5C131.4 23.6 131.2 22.8 130.8 22C130.4 21.3 129.8 20.7 129.2 20.2C128.5 19.8 127.7 19.5 126.9 19.5C126 19.5 125.2 19.7 124.5 20.2C123.8 20.6 123.2 21.2 122.8 22C122.4 22.7 122.2 23.6 122.2 24.4C122.2 25.3 122.4 26.1 122.8 26.9C123.2 27.6 123.8 28.2 124.5 28.7C125.2 29.3 126 29.5 126.9 29.5ZM146.4 43.3H141.2V15.3H146.4V17.3C147 16.6 147.7 16 148.6 15.5C149.4 15 150.4 14.8 151.5 14.8C152.9 14.8 154.2 15.1 155.4 15.6C156.6 16.1 157.7 16.8 158.6 17.7C159.5 18.6 160.2 19.7 160.8 20.8C161.3 22 161.6 23.2 161.6 24.6C161.6 26 161.3 27.2 160.8 28.4C160.3 29.6 159.6 30.6 158.6 31.6C157.7 32.5 156.6 33.2 155.4 33.7C154.2 34.2 152.9 34.5 151.5 34.5C150.4 34.5 149.4 34.3 148.6 33.8C147.8 33.3 147 32.7 146.4 32V43.3ZM151.4 19.8C150.5 19.8 149.8 20 149.1 20.5C148.4 20.9 147.9 21.5 147.5 22.3C147.1 23 146.9 23.9 146.9 24.7C146.9 25.6 147.1 26.4 147.5 27.2C147.9 27.9 148.4 28.5 149.1 29C149.8 29.4 150.6 29.7 151.4 29.7C152.3 29.7 153 29.5 153.8 29C154.5 28.6 155.1 28 155.5 27.2C155.9 26.5 156.1 25.6 156.1 24.7C156.1 23.8 155.9 23 155.5 22.3C155.1 21.6 154.5 21 153.8 20.5C153 20 152.2 19.8 151.4 19.8ZM181.1 22.1V34H175.9V23.5C175.9 22.8 175.7 22.3 175.4 21.7C175.1 21.2 174.6 20.7 174.1 20.4C173.5 20.1 172.9 19.9 172.3 19.9C171.6 19.9 171 20.1 170.5 20.4C170 20.7 169.5 21.1 169.2 21.7C168.9 22.2 168.7 22.8 168.7 23.5V34H163.5V6H168.7V16.7C169.3 16.1 170.1 15.6 170.9 15.3C171.8 15 172.7 14.8 173.6 14.8C175 14.8 176.2 15.1 177.4 15.8C178.5 16.4 179.4 17.4 180.1 18.5C180.8 19.5 181.1 20.8 181.1 22.1Z" fill="#081026"/>
<path d="M23.6 6.7L17.7 10L11.8 13.3L5.9 16.6V36.6L11.8 33.3L17.7 30V23.3L11.8 26.6V20L17.7 16.7L23.6 13.4V33.4L17.7 36.7L11.8 40L5.9 43.3L0 46.7L5.9 50L11.8 46.7L17.7 43.4L23.6 40.1L29.5 36.8V3.3L23.6 0V6.7Z" fill="#081026"/>
</g>
<defs>
<clipPath id="clip0_50_2">
<rect width="181.1" height="50" fill="white"/>
</clipPath>
</defs>
</svg>
