<svg width="643" height="288" viewBox="0 0 643 288" fill="none" xmlns="http://www.w3.org/2000/svg">
<circle cx="90" cy="101" r="25" fill="#55A471"/>
<path d="M454.398 193.131C450.721 193.131 447.709 191.905 445.359 189.454C443.01 187.003 441.835 183.99 441.835 180.415C441.835 176.84 443.01 173.827 445.359 171.376C447.709 168.925 450.721 167.699 454.398 167.699C457.973 167.699 460.934 168.925 463.284 171.376C465.633 173.827 466.808 176.84 466.808 180.415C466.808 183.99 465.633 187.003 463.284 189.454C460.934 191.905 457.973 193.131 454.398 193.131ZM509.232 210.443C503.717 205.54 498.918 199.565 494.831 192.518C490.848 185.573 487.784 177.964 485.639 169.691C483.494 161.316 482.422 152.634 482.422 143.646C482.422 134.556 483.494 125.875 485.639 117.602C487.784 109.227 490.848 101.566 494.831 94.6211C498.918 87.5737 503.717 81.5988 509.232 76.6963L520.569 87.1141C513.932 93.4466 508.773 101.413 505.096 111.014C501.522 120.615 499.734 131.492 499.734 143.646C499.734 155.698 501.522 166.525 505.096 176.125C508.773 185.726 513.932 193.693 520.569 200.025L509.232 210.443ZM537.685 210.443L526.501 200.025C533.139 193.693 538.246 185.726 541.821 176.125C545.395 166.525 547.184 155.698 547.184 143.646C547.184 131.492 545.395 120.615 541.821 111.014C538.246 101.413 533.139 93.4466 526.501 87.1141L537.685 76.6963C543.302 81.5988 548.103 87.5737 552.086 94.6211C556.069 101.566 559.133 109.227 561.278 117.602C563.525 125.875 564.649 134.556 564.649 143.646C564.649 152.634 563.525 161.316 561.278 169.691C559.133 177.964 556.069 185.573 552.086 192.518C548.103 199.565 543.302 205.54 537.685 210.443Z" fill="#55A471"/>
<path d="M73.2979 188.813L116.195 80.6517H137.95L180.387 188.813H154.955L122.476 99.0361H131.209L98.27 188.813H73.2979ZM97.6572 169.203V149.593H156.64V169.203H97.6572ZM218.15 190.652C213.759 190.652 209.418 190.09 205.128 188.966C200.941 187.843 197.008 186.26 193.331 184.217C189.757 182.072 186.693 179.621 184.139 176.863L197.468 163.382C199.919 166.037 202.83 168.131 206.2 169.663C209.571 171.093 213.248 171.808 217.231 171.808C219.989 171.808 222.082 171.399 223.512 170.582C225.044 169.765 225.81 168.642 225.81 167.212C225.81 165.373 224.891 163.994 223.053 163.075C221.316 162.054 219.069 161.186 216.312 160.471C213.554 159.654 210.643 158.785 207.579 157.866C204.515 156.947 201.604 155.67 198.847 154.036C196.089 152.402 193.842 150.155 192.106 147.295C190.37 144.333 189.501 140.605 189.501 136.111C189.501 131.311 190.727 127.174 193.178 123.702C195.629 120.127 199.102 117.318 203.596 115.276C208.09 113.233 213.349 112.212 219.376 112.212C225.709 112.212 231.53 113.335 236.841 115.582C242.255 117.727 246.646 120.944 250.017 125.234L236.688 138.716C234.338 135.958 231.684 134.018 228.721 132.894C225.862 131.771 223.053 131.209 220.295 131.209C217.639 131.209 215.647 131.617 214.32 132.434C212.993 133.149 212.328 134.222 212.328 135.652C212.328 137.184 213.196 138.409 214.933 139.329C216.67 140.248 218.916 141.065 221.674 141.78C224.432 142.495 227.342 143.363 230.406 144.384C233.471 145.406 236.381 146.784 239.139 148.521C241.897 150.257 244.143 152.606 245.88 155.568C247.617 158.428 248.484 162.207 248.484 166.905C248.484 174.157 245.727 179.927 240.212 184.217C234.798 188.507 227.444 190.652 218.15 190.652ZM261.202 188.813V114.356H284.642V188.813H261.202ZM284.642 147.908L274.837 140.248C276.777 131.566 280.046 124.825 284.642 120.025C289.238 115.225 295.621 112.824 303.792 112.824C307.368 112.824 310.482 113.386 313.138 114.51C315.895 115.531 318.295 117.165 320.338 119.412L306.397 137.031C305.376 135.907 304.099 135.039 302.567 134.426C301.035 133.813 299.298 133.507 297.358 133.507C293.476 133.507 290.362 134.732 288.012 137.184C285.766 139.533 284.642 143.108 284.642 147.908ZM359.674 190.499C352.831 190.499 346.755 189.12 341.443 186.362C336.234 183.502 332.149 179.621 329.186 174.719C326.225 169.714 324.744 163.994 324.744 157.56V114.356H348.184V157.253C348.184 159.807 348.593 162.003 349.409 163.841C350.328 165.68 351.657 167.11 353.393 168.131C355.129 169.152 357.223 169.663 359.674 169.663C363.147 169.663 365.905 168.59 367.947 166.446C369.99 164.199 371.011 161.135 371.011 157.253V114.356H394.451V157.407C394.451 163.943 392.971 169.714 390.008 174.719C387.047 179.621 382.961 183.502 377.752 186.362C372.543 189.12 366.518 190.499 359.674 190.499ZM409.168 188.813V77.5876H432.608V188.813H409.168Z" fill="white"/>
</svg>
