<svg width="359" height="97" viewBox="0 0 359 97" fill="none" xmlns="http://www.w3.org/2000/svg">
<path d="M275.28 84.1C272.64 84.1 270.477 83.22 268.79 81.46C267.103 79.7 266.26 77.5367 266.26 74.97C266.26 72.4033 267.103 70.24 268.79 68.48C270.477 66.72 272.64 65.84 275.28 65.84C277.847 65.84 279.973 66.72 281.66 68.48C283.347 70.24 284.19 72.4033 284.19 74.97C284.19 77.5367 283.347 79.7 281.66 81.46C279.973 83.22 277.847 84.1 275.28 84.1ZM314.651 96.53C310.691 93.01 307.245 88.72 304.311 83.66C301.451 78.6733 299.251 73.21 297.711 67.27C296.171 61.2567 295.401 55.0233 295.401 48.57C295.401 42.0433 296.171 35.81 297.711 29.87C299.251 23.8567 301.451 18.3567 304.311 13.37C307.245 8.31 310.691 4.02 314.651 0.499993L322.791 7.98C318.025 12.5267 314.321 18.2467 311.681 25.14C309.115 32.0333 307.831 39.8433 307.831 48.57C307.831 57.2233 309.115 64.9967 311.681 71.89C314.321 78.7833 318.025 84.5033 322.791 89.05L314.651 96.53ZM335.08 96.53L327.05 89.05C331.816 84.5033 335.483 78.7833 338.05 71.89C340.616 64.9967 341.9 57.2233 341.9 48.57C341.9 39.8433 340.616 32.0333 338.05 25.14C335.483 18.2467 331.816 12.5267 327.05 7.98L335.08 0.499993C339.113 4.02 342.56 8.31 345.42 13.37C348.28 18.3567 350.48 23.8567 352.02 29.87C353.633 35.81 354.44 42.0433 354.44 48.57C354.44 55.0233 353.633 61.2567 352.02 67.27C350.48 73.21 348.28 78.6733 345.42 83.66C342.56 88.72 339.113 93.01 335.08 96.53Z" fill="#55A471"/>
<path d="M1.65 81L32.45 3.34H48.07L78.54 81H60.28L36.96 16.54H43.23L19.58 81H1.65ZM19.14 66.92V52.84H61.49V66.92H19.14ZM105.654 82.32C102.501 82.32 99.3841 81.9167 96.3041 81.11C93.2975 80.3033 90.4741 79.1667 87.8341 77.7C85.2675 76.16 83.0675 74.4 81.2341 72.42L90.8041 62.74C92.5641 64.6467 94.6541 66.15 97.0741 67.25C99.4941 68.2767 102.134 68.79 104.994 68.79C106.974 68.79 108.477 68.4967 109.504 67.91C110.604 67.3233 111.154 66.5167 111.154 65.49C111.154 64.17 110.494 63.18 109.174 62.52C107.927 61.7867 106.314 61.1633 104.334 60.65C102.354 60.0633 100.264 59.44 98.0641 58.78C95.8641 58.12 93.7741 57.2033 91.7941 56.03C89.8141 54.8567 88.2008 53.2433 86.9541 51.19C85.7075 49.0633 85.0841 46.3867 85.0841 43.16C85.0841 39.7133 85.9641 36.7433 87.7241 34.25C89.4841 31.6833 91.9775 29.6667 95.2041 28.2C98.4308 26.7333 102.207 26 106.534 26C111.081 26 115.261 26.8067 119.074 28.42C122.961 29.96 126.114 32.27 128.534 35.35L118.964 45.03C117.277 43.05 115.371 41.6567 113.244 40.85C111.191 40.0433 109.174 39.64 107.194 39.64C105.287 39.64 103.857 39.9333 102.904 40.52C101.951 41.0333 101.474 41.8033 101.474 42.83C101.474 43.93 102.097 44.81 103.344 45.47C104.591 46.13 106.204 46.7167 108.184 47.23C110.164 47.7433 112.254 48.3667 114.454 49.1C116.654 49.8333 118.744 50.8233 120.724 52.07C122.704 53.3167 124.317 55.0033 125.564 57.13C126.811 59.1833 127.434 61.8967 127.434 65.27C127.434 70.4767 125.454 74.62 121.494 77.7C117.607 80.78 112.327 82.32 105.654 82.32ZM136.565 81V27.54H153.395V81H136.565ZM153.395 51.63L146.355 46.13C147.748 39.8967 150.095 35.0567 153.395 31.61C156.695 28.1633 161.278 26.44 167.145 26.44C169.712 26.44 171.948 26.8433 173.855 27.65C175.835 28.3833 177.558 29.5567 179.025 31.17L169.015 43.82C168.282 43.0133 167.365 42.39 166.265 41.95C165.165 41.51 163.918 41.29 162.525 41.29C159.738 41.29 157.502 42.17 155.815 43.93C154.202 45.6167 153.395 48.1833 153.395 51.63ZM207.268 82.21C202.355 82.21 197.992 81.22 194.178 79.24C190.438 77.1867 187.505 74.4 185.378 70.88C183.252 67.2867 182.188 63.18 182.188 58.56V27.54H199.018V58.34C199.018 60.1733 199.312 61.75 199.898 63.07C200.558 64.39 201.512 65.4167 202.758 66.15C204.005 66.8833 205.508 67.25 207.268 67.25C209.762 67.25 211.742 66.48 213.208 64.94C214.675 63.3267 215.408 61.1267 215.408 58.34V27.54H232.238V58.45C232.238 63.1433 231.175 67.2867 229.048 70.88C226.922 74.4 223.988 77.1867 220.248 79.24C216.508 81.22 212.182 82.21 207.268 82.21ZM242.805 81V1.14H259.635V81H242.805Z" fill="white"/>
</svg>
