<svg width="149" height="30" viewBox="0 0 149 30" fill="none" xmlns="http://www.w3.org/2000/svg">
<g clip-path="url(#clip0_50_12)">
<path fill-rule="evenodd" clip-rule="evenodd" d="M98.9227 0.0116257H124.842V4.79558H114.559V29.9651H109.418V4.79558H98.9227V0.0116257ZM146.425 20.5948C146.37 20.0659 146.126 19.6503 145.701 19.3538C145.271 19.0544 144.719 18.9062 144.039 18.9062C143.562 18.9062 143.152 18.9789 142.81 19.1213C142.469 19.2637 142.205 19.4555 142.022 19.6997C141.842 19.9438 141.752 20.2228 141.743 20.5338C141.743 20.7954 141.807 21.0221 141.929 21.211C142.051 21.4028 142.214 21.5656 142.426 21.6964C142.635 21.8301 142.868 21.9376 143.123 22.0277C143.382 22.1178 143.638 22.1934 143.897 22.2544L145.085 22.545C145.562 22.6555 146.024 22.8037 146.469 22.9926C146.91 23.1786 147.312 23.4141 147.663 23.6989C148.015 23.9837 148.294 24.3267 148.497 24.7278C148.704 25.1318 148.808 25.6026 148.808 26.1432C148.808 26.8756 148.619 27.5179 148.242 28.073C147.861 28.6253 147.314 29.0583 146.597 29.3693C145.882 29.6803 145.018 29.8372 144.001 29.8372C143.019 29.8372 142.161 29.6861 141.441 29.3838C140.717 29.0845 140.15 28.6456 139.743 28.0701C139.336 27.4918 139.118 26.7884 139.086 25.9601H141.342C141.374 26.3931 141.513 26.7535 141.752 27.0471C141.99 27.3348 142.304 27.547 142.687 27.6923C143.074 27.8318 143.507 27.9045 143.984 27.9045C144.481 27.9045 144.92 27.8289 145.3 27.6807C145.675 27.5325 145.972 27.329 146.184 27.0587C146.402 26.7971 146.509 26.4832 146.512 26.1257C146.509 25.8002 146.411 25.5299 146.225 25.3149C146.033 25.1027 145.768 24.9254 145.428 24.7801C145.088 24.6377 144.69 24.5069 144.237 24.3935L142.795 24.0302C141.755 23.7657 140.929 23.3618 140.325 22.8241C139.72 22.2835 139.421 21.5714 139.421 20.6762C139.421 19.9409 139.621 19.2957 140.031 18.7435C140.435 18.1912 140.987 17.7611 141.688 17.4559C142.391 17.1478 143.184 16.9967 144.071 16.9967C144.969 16.9967 145.757 17.1478 146.437 17.4559C147.114 17.7611 147.649 18.1854 148.035 18.7289C148.422 19.2724 148.622 19.8915 148.634 20.5948H146.425ZM134.773 17.1653H137.052V25.9397C137.049 26.7477 136.875 27.4365 136.532 28.0178C136.189 28.5991 135.709 29.0409 135.099 29.3519C134.488 29.6629 133.774 29.8198 132.963 29.8198C132.221 29.8198 131.556 29.6861 130.963 29.4245C130.37 29.163 129.899 28.7735 129.556 28.2591C129.208 27.7417 129.036 27.1023 129.036 26.3321H131.318C131.32 26.6692 131.399 26.9599 131.544 27.204C131.69 27.4482 131.893 27.6342 132.149 27.765C132.41 27.8958 132.713 27.9597 133.05 27.9597C133.416 27.9597 133.727 27.8841 133.983 27.7301C134.236 27.579 134.433 27.3523 134.567 27.05C134.701 26.7506 134.77 26.3815 134.773 25.9397V17.1653ZM125.999 29.782C125.621 29.782 125.301 29.6512 125.034 29.3897C124.767 29.131 124.633 28.8142 124.636 28.4393C124.633 28.076 124.767 27.765 125.034 27.5034C125.301 27.2418 125.621 27.111 125.999 27.111C126.362 27.111 126.679 27.2418 126.946 27.5034C127.217 27.765 127.353 28.076 127.356 28.4393C127.353 28.6863 127.292 28.913 127.164 29.1164C127.036 29.3228 126.874 29.4827 126.667 29.6018C126.464 29.721 126.243 29.782 125.999 29.782ZM30.3778 29.7413L6.42608 0H0V29.9535H5.14145V6.40283L24.0971 29.9651H56.2943V25.1812H35.5164V17.2757H52.2253V12.4918H35.5164V4.79558H56.2943V0.0116257H30.3749V4.79558H30.3778V29.7413ZM76.1422 21.4203L72.7708 17.2292L62.4908 30H69.2366L76.1422 21.4203ZM69.2366 0.0261577H62.5082L86.6082 29.9767H93.354L81.304 15.0116L93.3366 0.0465026L86.6082 0.0581283L77.9355 10.8293L69.2366 0.0261577Z" fill="black"/>
</g>
<defs>
<clipPath id="clip0_50_12">
<rect width="148.808" height="30" fill="white"/>
</clipPath>
</defs>
</svg>
