<svg width="250" height="51" viewBox="0 0 250 51" fill="none" xmlns="http://www.w3.org/2000/svg">
<g clip-path="url(#clip0_43_10)">
<path d="M166.192 0.0209961H209.738V8.05839H192.464V50.342H183.826V8.05839H166.192V0.0209961Z" fill="black"/>
<path d="M94.5763 0.0209961V8.05839H59.6715V20.9881H87.7419V29.0255H59.6715V42.3046H94.5763V50.342H51.0344V8.05839H51.0308V0.0209961H94.5763Z" fill="black"/>
<path d="M116.32 0.0419922H105.017L145.503 50.363H156.839L136.593 25.2198L156.807 0.0803839L145.503 0.0978522L130.934 18.1915L116.32 0.0419922Z" fill="black"/>
<path d="M127.919 35.9865L122.258 28.9485L104.984 50.4013H116.32L127.919 35.9865Z" fill="black"/>
<path fill-rule="evenodd" clip-rule="evenodd" d="M51.3369 50.342L10.7964 0H0V50.321H8.63712V10.7561L40.4865 50.342H51.3369Z" fill="black"/>
<path d="M211.679 50.0346C211.047 50.0346 210.509 49.8155 210.058 49.3773C209.608 48.939 209.385 48.4084 209.391 47.7799C209.385 47.1686 209.608 46.6438 210.058 46.2055C210.509 45.7673 211.047 45.5481 211.679 45.5481C212.288 45.5481 212.82 45.7673 213.271 46.2055C213.728 46.6438 213.955 47.1686 213.962 47.7799C213.955 48.1951 213.85 48.5756 213.639 48.9159C213.423 49.2619 213.148 49.533 212.803 49.7291C212.463 49.9309 212.089 50.0346 211.679 50.0346Z" fill="black"/>
<path d="M226.421 28.8359H230.249V43.5817C230.243 44.9369 229.95 46.096 229.377 47.0706C228.797 48.0452 227.995 48.789 226.966 49.3139C225.941 49.8328 224.742 50.0982 223.378 50.0982C222.131 50.0982 221.014 49.8732 220.019 49.435C219.024 48.9967 218.234 48.3393 217.655 47.4743C217.069 46.6092 216.782 45.5309 216.782 44.2391H220.616C220.622 44.8043 220.751 45.2944 220.996 45.7038C221.242 46.1133 221.581 46.4246 222.014 46.6438C222.453 46.863 222.957 46.9726 223.524 46.9726C224.139 46.9726 224.665 46.8456 225.093 46.5861C225.52 46.3324 225.848 45.9518 226.076 45.4443C226.298 44.9427 226.415 44.3198 226.421 43.5817V28.8359Z" fill="black"/>
<path d="M245.997 34.6026C245.903 33.7087 245.493 33.011 244.78 32.515C244.059 32.0133 243.129 31.7653 241.988 31.7653C241.186 31.7653 240.496 31.8865 239.922 32.1229C239.349 32.3651 238.904 32.688 238.599 33.0974C238.295 33.5069 238.143 33.974 238.131 34.4988C238.131 34.9371 238.236 35.3177 238.441 35.6349C238.646 35.9578 238.921 36.2289 239.278 36.448C239.629 36.6729 240.021 36.8574 240.449 37.0073C240.882 37.1573 241.315 37.2842 241.748 37.388L243.743 37.8782C244.545 38.0627 245.324 38.3107 246.067 38.6278C246.81 38.9393 247.483 39.3372 248.074 39.8158C248.665 40.2945 249.134 40.8711 249.479 41.5459C249.824 42.2205 250 43.0106 250 43.9218C250 45.1501 249.684 46.2285 249.045 47.1627C248.408 48.0911 247.489 48.8178 246.283 49.3426C245.084 49.8616 243.632 50.1268 241.924 50.1268C240.273 50.1268 238.834 49.8731 237.622 49.3657C236.405 48.8639 235.457 48.1257 234.772 47.1569C234.087 46.1881 233.719 45.0059 233.666 43.6161H237.459C237.511 44.3427 237.745 44.9483 238.143 45.4384C238.547 45.9228 239.073 46.2804 239.717 46.5226C240.367 46.759 241.092 46.8801 241.894 46.8801C242.731 46.8801 243.469 46.7532 244.106 46.5053C244.738 46.2573 245.236 45.9113 245.593 45.4615C245.956 45.0174 246.137 44.4927 246.143 43.8929C246.137 43.3451 245.973 42.8895 245.657 42.5319C245.335 42.1744 244.891 41.8745 244.323 41.6323C243.75 41.3902 243.082 41.171 242.321 40.9807L239.899 40.3694C238.149 39.9254 236.762 39.2507 235.749 38.3453C234.731 37.4399 234.228 36.2404 234.228 34.7353C234.228 33.5012 234.567 32.4171 235.252 31.4886C235.931 30.5601 236.861 29.8393 238.038 29.326C239.22 28.807 240.554 28.5532 242.04 28.5532C243.551 28.5532 244.873 28.807 246.014 29.326C247.155 29.8393 248.051 30.5544 248.7 31.4655C249.35 32.3766 249.689 33.4204 249.707 34.6026H245.997Z" fill="black"/>
</g>
<defs>
<clipPath id="clip0_43_10">
<rect width="250" height="50.1269" fill="white"/>
</clipPath>
</defs>
</svg>
