<svg width="400" height="356" viewBox="0 0 400 356" fill="none" xmlns="http://www.w3.org/2000/svg">
<g clip-path="url(#clip0_12_2)">
<path d="M200 213.595C219.69 213.595 235.652 197.633 235.652 177.943C235.652 158.253 219.69 142.291 200 142.291C180.31 142.291 164.348 158.253 164.348 177.943C164.348 197.633 180.31 213.595 200 213.595Z" fill="white"/>
<path d="M200 250.987C305.655 250.987 391.304 218.284 391.304 177.943C391.304 137.602 305.655 104.9 200 104.9C94.3456 104.9 8.69568 137.602 8.69568 177.943C8.69568 218.284 94.3456 250.987 200 250.987Z" stroke="white" stroke-width="10"/>
<path d="M136.743 214.465C189.57 305.964 260.716 363.788 295.652 343.618C330.588 323.447 316.085 232.921 263.258 141.422C210.43 49.9221 139.284 -7.90153 104.348 12.2689C69.4117 32.4393 83.9153 122.966 136.743 214.465Z" stroke="white" stroke-width="10"/>
<path d="M136.742 141.422C83.9152 232.921 69.4117 323.447 104.348 343.618C139.284 363.788 210.43 305.964 263.257 214.465C316.085 122.966 330.588 32.4393 295.652 12.2689C260.716 -7.90155 189.57 49.9221 136.742 141.422Z" stroke="white" stroke-width="10"/>
</g>
<defs>
<clipPath id="clip0_12_2">
<rect width="400" height="355.887" fill="white"/>
</clipPath>
</defs>
</svg>
