<svg width="452" height="80" viewBox="0 0 452 80" fill="none" xmlns="http://www.w3.org/2000/svg">
<path d="M53.8697 48.5868L52.1952 51.4944C51.6904 52.3704 50.7565 52.9099 49.7461 52.9099H36.9184C35.9079 52.9099 34.974 52.3704 34.4693 51.4944L32.7947 48.5868H53.8697ZM58.5569 40.4472L55.6048 45.5733H31.0605L28.1084 40.4472H58.5569ZM55.7135 32.4883L58.5623 37.4346H28.103L30.9518 32.4883H55.7135ZM49.7461 24.9639C50.7565 24.9639 51.6904 25.5034 52.1952 26.3794L53.9783 29.4748H32.687L34.4701 26.3794C34.9749 25.5034 35.9088 24.9639 36.9192 24.9639H49.7461Z" fill="white"/>
<path d="M18.2506 23.6141C16.8298 16.7244 16.5244 11.4398 17.4432 7.6019C17.9898 5.31929 18.9878 3.45776 20.5066 2.11436C22.1099 0.696181 24.137 0 26.4143 0C30.1712 0 34.1213 1.71374 38.3429 4.96852C40.0646 6.29589 41.8514 7.89657 43.7075 9.77056C43.8553 9.58004 44.0218 9.4011 44.2079 9.23552C49.4541 4.55989 53.8716 1.65499 57.6499 0.535042C59.896 -0.13087 62.005 -0.19408 63.9262 0.452247C65.9533 1.13418 67.5691 2.54523 68.7086 4.52071C70.5897 7.78083 71.0856 12.0647 70.3841 17.3547C70.0983 19.5109 69.6096 21.8594 68.9187 24.4037C69.1796 24.4349 69.4404 24.4927 69.6986 24.5782C76.355 26.7843 81.0689 29.1568 83.9231 31.8676C85.6208 33.4808 86.7301 35.2764 87.1307 37.2644C87.5536 39.3627 87.1414 41.4673 86.0028 43.441C84.1252 46.6966 80.6737 49.2641 75.755 51.2975C73.7804 52.1139 71.5459 52.8537 69.0496 53.5187C69.1635 53.776 69.2517 54.0493 69.3113 54.3359C70.7322 61.2256 71.0375 66.5102 70.1188 70.3481C69.5722 72.6307 68.5742 74.4922 67.0554 75.8356C65.4521 77.2538 63.4249 77.95 61.1477 77.95C57.3908 77.95 53.4407 76.2362 49.2191 72.9815C47.4787 71.6398 45.6723 70.0196 43.7957 68.1198C43.6025 68.4216 43.3657 68.7029 43.0853 68.9522C37.839 73.6278 33.4215 76.5327 29.6433 77.6526C27.3972 78.3186 25.2881 78.3818 23.367 77.7354C21.3398 77.0535 19.724 75.6424 18.5845 73.667C16.7034 70.4068 16.2075 66.1229 16.909 60.833C17.2055 58.5994 17.7192 56.1583 18.4501 53.5071C18.1643 53.4786 17.8776 53.4181 17.5945 53.3237C10.9381 51.1177 6.22417 48.7451 3.37001 46.0343C1.67229 44.4211 0.563029 42.6255 0.162414 40.6375C-0.260458 38.5392 0.151731 36.4346 1.29037 34.4609C3.16792 31.2053 6.61944 28.6378 11.5381 26.6044C13.5715 25.7631 15.8808 25.0046 18.467 24.3236C18.3744 24.0984 18.3014 23.8615 18.2506 23.6141Z" fill="white"/>
<path d="M64.6675 55.0131C65.329 54.8956 65.9637 55.3203 66.1115 55.971L66.1195 56.0093L66.1898 56.3761C68.4778 68.4053 66.8664 74.4198 61.3549 74.4198C55.9626 74.4198 49.0978 69.2875 40.7614 59.0228C40.5772 58.7958 40.4774 58.5118 40.4801 58.2198C40.4863 57.5397 41.0321 56.9895 41.7078 56.9752H41.7469L42.1858 56.9779C45.6935 56.9966 49.104 56.8747 52.4167 56.6111C56.3276 56.2995 60.4112 55.7672 64.6675 55.0131ZM26.8165 45.92L26.8378 45.9557L27.0577 46.3403C28.8231 49.409 30.6624 52.3219 32.5755 55.079C34.8288 58.3258 37.3624 61.6117 40.1765 64.9386C40.6119 65.4532 40.562 66.217 40.0715 66.671L40.0394 66.6995L39.7563 66.9434C30.4451 74.9219 24.3932 76.5146 21.6004 71.7215C18.8665 67.0298 19.8582 58.5003 24.5739 46.131C24.6772 45.8595 24.8721 45.6316 25.125 45.4874C25.7152 45.1509 26.4639 45.3449 26.8165 45.92ZM69.3921 28.1701L69.4304 28.1826L69.7811 28.3036C81.2744 32.3018 85.6411 36.6952 82.8804 41.4848C80.1811 46.1684 72.3335 49.579 59.3375 51.7156C59.0473 51.7637 58.75 51.7076 58.4971 51.5589C57.8989 51.2073 57.6995 50.4372 58.0511 49.8399C59.9126 46.6741 61.589 43.5235 63.0802 40.3889C64.7717 36.8341 66.359 33.0184 67.8422 28.942C68.0674 28.3241 68.728 27.9885 69.3538 28.1594L69.3921 28.1701ZM28.7946 26.1572C29.3929 26.5089 29.5923 27.2789 29.2406 27.8763C27.3791 31.0421 25.7027 34.1927 24.2116 37.3273C22.5201 40.8821 20.9327 44.6977 19.4496 48.7742C19.2199 49.4045 18.5371 49.7419 17.8996 49.5452L17.8614 49.5327L17.5106 49.4116C6.01739 45.4135 1.65068 41.0201 4.41136 36.2305C7.11062 31.5468 14.9582 28.1363 27.9542 25.9997C28.2444 25.9534 28.5418 26.0086 28.7946 26.1572ZM65.6922 6.46565C68.4262 11.1573 67.4344 19.6868 62.7187 32.0561C62.6155 32.3276 62.4205 32.5555 62.1677 32.6997C61.5774 33.0371 60.8287 32.8422 60.4753 32.2671L60.4539 32.2315L60.234 31.8469C58.4686 28.7781 56.6294 25.8652 54.7162 23.1081C52.463 19.8613 49.9293 16.5754 47.1152 13.2485C46.6799 12.7339 46.7297 11.9701 47.2202 11.5161L47.2523 11.4876L47.5354 11.2436C56.8475 3.26606 62.8995 1.6734 65.6922 6.46565ZM26.4087 3.6106C31.801 3.6106 38.6658 8.74292 47.0021 19.0076C47.1864 19.2346 47.2861 19.5186 47.2835 19.8106C47.2772 20.4907 46.7315 21.0409 46.0558 21.0552H46.0166L45.5777 21.0516C42.0701 21.0329 38.6595 21.1549 35.3469 21.4184C31.4369 21.73 27.3533 22.2624 23.097 23.0164C22.4355 23.1339 21.8008 22.7093 21.653 22.0585L21.645 22.0202L21.5746 21.6534C19.2858 9.62517 20.8971 3.6106 26.4087 3.6106Z" fill="black"/>
<path d="M37.9499 25.1204H48.7166C50.2915 25.1204 51.7453 25.9625 52.5296 27.3282L57.9361 36.748C58.7142 38.103 58.7142 39.7695 57.9361 41.1245L52.5296 50.5443C51.7462 51.91 50.2915 52.7521 48.7166 52.7521H37.9499C36.375 52.7521 34.9212 51.91 34.1369 50.5443L28.7304 41.1245C27.9523 39.7695 27.9523 38.103 28.7304 36.748L34.1369 27.3282C34.9212 25.9625 36.375 25.1204 37.9499 25.1204ZM47.0759 27.9638C48.6516 27.9638 50.1063 28.8069 50.8897 30.1735L54.66 36.7507C55.4363 38.1048 55.4363 39.7686 54.66 41.1227L50.8897 47.6999C50.1063 49.0665 48.6516 49.9096 47.0759 49.9096H39.5906C38.0148 49.9096 36.5602 49.0665 35.7767 47.6999L32.0065 41.1227C31.2302 39.7686 31.2302 38.1048 32.0065 36.7507L35.7767 30.1735C36.5602 28.8069 38.0148 27.9638 39.5906 27.9638H47.0759ZM45.3069 31.0735H41.3595C39.7856 31.0735 38.3318 31.9148 37.5475 33.2796L35.5551 36.7471C34.7761 38.103 34.7761 39.7713 35.5551 41.1272L37.5475 44.5947C38.3318 45.9595 39.7856 46.8008 41.3595 46.8008H45.3069C46.8809 46.8008 48.3347 45.9595 49.119 44.5947L51.1114 41.1272C51.8904 39.7713 51.8904 38.103 51.1114 36.7471L49.119 33.2796C48.3347 31.9148 46.8809 31.0735 45.3069 31.0735ZM43.6039 34.0505C45.177 34.0505 46.6299 34.8909 47.4142 36.2539L47.6964 36.7444C48.478 38.1021 48.478 39.7731 47.6964 41.1307L47.4142 41.6213C46.6299 42.9842 45.177 43.8247 43.6039 43.8247H43.0626C41.4895 43.8247 40.0366 42.9842 39.2523 41.6213L38.9701 41.1307C38.1884 39.7731 38.1884 38.1021 38.9701 36.7444L39.2523 36.2539C40.0366 34.8909 41.4895 34.0505 43.0626 34.0505H43.6039ZM43.3341 36.9821C42.6344 36.9821 41.989 37.3543 41.6391 37.9596C41.2892 38.5641 41.2892 39.3093 41.6391 39.9146C41.989 40.5191 42.6344 40.8921 43.3324 40.8921C44.0321 40.8921 44.6775 40.52 45.0274 39.9146C45.3773 39.3102 45.3773 38.565 45.0274 37.9596C44.6784 37.3552 44.033 36.9821 43.3341 36.9821ZM27.4751 38.9371H30.9943H27.4751Z" fill="black"/>
<path d="M114.145 66.7515V49.8846H123.364L132.036 66.7515H143.645L134.699 48.3138C137.386 47.2211 139.502 45.332 141.05 42.6455C142.598 39.9591 143.372 37.2059 143.372 34.3827C143.372 29.8301 142.087 26.1198 139.514 23.2518C136.941 20.3837 132.787 18.9497 127.051 18.9497H103.766V66.7505H114.145V66.7515ZM127.188 40.052H114.145V28.7844H127.188C129.1 28.7844 130.477 29.3198 131.319 30.3896C132.161 31.4593 132.582 32.7911 132.582 34.3848C132.583 38.1629 130.785 40.052 127.188 40.052ZM159.182 67.5719C164.737 67.5719 169.266 65.4553 172.771 61.2211L167.035 55.485C164.986 57.9429 162.369 59.1723 159.182 59.1723C157.224 59.1723 155.609 58.6369 154.334 57.5671C153.06 56.4973 152.376 54.8702 152.285 52.6848H174.615C174.797 51.5012 174.889 49.7937 174.889 47.5634C174.889 42.1915 173.432 38.094 170.519 35.2719C167.605 32.4498 163.827 31.0377 159.183 31.0377C154.085 31.0377 150.044 32.6763 147.062 35.9545C144.08 39.2327 142.589 43.6705 142.589 49.2709C142.589 55.007 144.069 59.4906 147.027 62.7229C149.986 65.9552 154.038 67.5719 159.182 67.5719ZM165.396 45.2412H152.353C152.581 43.42 153.263 41.9974 154.402 40.9736C155.54 39.9497 156.997 39.4373 158.772 39.4373C162.688 39.4373 164.896 41.3722 165.396 45.2412ZM188.992 67.5719C192.679 67.5719 195.57 66.4343 197.664 64.158V66.7526H207.497V44.6964C207.497 35.5913 202.558 31.0387 192.679 31.0387C186.989 31.0387 182.003 32.4957 177.724 35.4086L180.797 42.9889C184.484 40.531 188.217 39.3016 191.996 39.3016C193.771 39.3016 195.16 39.7222 196.161 40.5644C197.163 41.4067 197.663 42.6247 197.663 44.2173V46.1294C195.842 45.3101 193.293 44.8999 190.015 44.8999C186.237 44.8999 182.935 45.8674 180.113 47.8024C177.291 49.7374 175.879 52.5032 175.879 56.0997C175.879 59.787 177.097 62.6206 179.532 64.6016C181.97 66.5814 185.122 67.5719 188.992 67.5719ZM190.904 59.2401C187.353 59.2401 185.578 58.2163 185.578 56.1675C185.578 53.9372 187.627 52.8215 191.724 52.8215C193.864 52.8215 195.845 53.0949 197.665 53.6408V56.7823C195.615 58.4208 193.362 59.2401 190.904 59.2401ZM226.518 67.5719C234.439 67.5719 239.561 63.6341 241.882 55.7584L232.389 53.0271C231.343 56.3961 229.385 58.0806 226.517 58.0806C224.695 58.0806 223.193 57.2728 222.01 55.6561C220.826 54.0405 220.235 51.9344 220.235 49.3398C220.235 46.7452 220.838 44.6275 222.044 42.9889C223.251 41.3503 224.787 40.531 226.653 40.531C229.34 40.531 231.252 42.0329 232.389 45.0377L241.813 41.9651C239.537 34.6812 234.438 31.0387 226.517 31.0387C221.6 31.0387 217.65 32.6888 214.669 35.99C211.687 39.2901 210.195 43.7404 210.195 49.3398C210.195 55.0299 211.675 59.4917 214.634 62.7239C217.594 65.9552 221.555 67.5719 226.518 67.5719ZM255.575 67.5719C258.716 67.5719 261.357 67.048 263.496 66.0011L264.589 57.6704C262.586 58.5805 260.583 59.0366 258.58 59.0366C258.034 59.0366 257.566 58.8655 257.18 58.5242C256.794 58.1829 256.6 57.6934 256.6 57.0557V40.53H264.18V31.858H256.6V17.45L246.766 22.1622V31.8591H241.986V40.531H246.766V58.0128C246.766 64.3845 249.703 67.5719 255.575 67.5719ZM309.731 72.2831L317.379 67.3663L313.691 61.9715C318.198 57.2822 320.451 50.9095 320.451 42.8512C320.451 39.7556 320.053 36.7967 319.256 33.9736C318.46 31.1514 317.265 28.5224 315.671 26.0864C314.078 23.6505 311.87 21.7165 309.047 20.2825C306.225 18.8485 302.97 18.1315 299.282 18.1315C296.278 18.1315 293.558 18.6095 291.122 19.5655C288.686 20.5215 286.671 21.8073 285.079 23.424C283.485 25.0396 282.153 26.9183 281.084 29.0578C280.014 31.1974 279.239 33.4173 278.761 35.7155C278.283 38.0147 278.044 40.3933 278.044 42.8512C278.044 45.309 278.283 47.6886 278.761 49.9868C279.239 52.2861 280.013 54.5049 281.084 56.6445C282.153 58.7841 283.485 60.6617 285.079 62.2783C286.672 63.8939 288.687 65.1808 291.122 66.1368C293.558 67.0928 296.278 67.5708 299.282 67.5708C301.559 67.5708 303.766 67.2744 305.907 66.6826L309.731 72.2831ZM299.282 57.5337C297.416 57.5337 295.777 57.0901 294.365 56.202C292.954 55.3138 291.862 54.1302 291.087 52.6513C290.313 51.1714 289.744 49.6122 289.38 47.9736C289.016 46.335 288.834 44.6275 288.834 42.8522C288.834 40.4851 289.13 38.2433 289.722 36.1256C290.314 34.0091 291.441 32.1419 293.103 30.5263C294.764 28.9106 296.824 28.1018 299.282 28.1018C301.74 28.1018 303.789 28.8866 305.429 30.4574C307.067 32.0281 308.183 33.8713 308.775 35.9889C309.366 38.1055 309.663 40.3933 309.663 42.8522C309.663 46.8579 308.934 50.0901 307.477 52.5491L303.653 46.813L295.937 51.7976L299.829 57.4659H299.488L299.282 57.5337ZM335.443 67.5719C339.631 67.5719 342.818 66.2286 345.003 63.5432V66.7526H354.904V31.858H345.003V50.1591C345.003 52.8455 344.514 54.8254 343.535 56.0997C342.556 57.374 341.019 58.0117 338.926 58.0117C336.832 58.0117 335.375 57.374 334.556 56.0997C333.736 54.8254 333.326 52.7996 333.326 50.0223V31.858H323.425V54.5289C323.425 56.896 323.801 58.9677 324.552 60.7431C325.303 62.5184 326.293 63.8845 327.522 64.8406C328.752 65.7966 330.026 66.4906 331.346 66.9238C332.666 67.3548 334.032 67.5719 335.443 67.5719ZM374.881 67.5719C380.435 67.5719 384.965 65.4553 388.469 61.2211L382.733 55.485C380.684 57.9429 378.067 59.1723 374.881 59.1723C372.923 59.1723 371.307 58.6369 370.033 57.5671C368.758 56.4973 368.075 54.8702 367.984 52.6848H390.314C390.495 51.5012 390.587 49.7937 390.587 47.5634C390.587 42.1915 389.13 38.094 386.217 35.2719C383.303 32.4498 379.525 31.0377 374.882 31.0377C369.783 31.0377 365.742 32.6763 362.76 35.9545C359.778 39.2327 358.287 43.6705 358.287 49.2709C358.287 55.007 359.767 59.4906 362.726 62.7229C365.685 65.9552 369.736 67.5719 374.881 67.5719ZM381.095 45.2412H368.052C368.279 43.42 368.962 41.9974 370.1 40.9736C371.238 39.9497 372.695 39.4373 374.47 39.4373C378.385 39.4373 380.594 41.3722 381.095 45.2412ZM403.529 66.7515V47.8358C403.529 43.0098 405.531 40.5978 409.538 40.5978C411.769 40.5978 413.84 41.3942 415.752 42.9879L417.05 33.9736C415.184 32.0156 412.884 31.0377 410.153 31.0377C408.559 31.0377 407.171 31.4698 405.988 32.335C404.804 33.2002 403.985 34.0873 403.53 34.9985V31.857H393.628V66.7515H403.529ZM433.201 80.0001L451.775 31.857H441.6L434.567 50.4993C434.066 51.8655 433.702 52.9572 433.474 53.7775C433.247 52.9582 432.882 51.8655 432.381 50.4993L425.279 31.857H415.036L428.216 66.3414L422.958 79.999H433.201V80.0001Z" fill="black"/>
</svg>
