<svg width="1127" height="350" viewBox="0 0 1127 350" fill="none" xmlns="http://www.w3.org/2000/svg">
<path d="M312.3 56H114.7C101.059 56 90 66.6556 90 79.8V270.2C90 283.344 101.059 294 114.7 294H312.3C325.941 294 337 283.344 337 270.2V79.8C337 66.6556 325.941 56 312.3 56Z" fill="white"/>
<path d="M263.102 90.1447L140.517 226.67C137.47 230.064 137.751 235.285 141.145 238.332C144.538 241.379 149.76 241.098 152.807 237.705L275.392 101.179C278.439 97.7856 278.158 92.5643 274.764 89.5172C271.371 86.4701 266.149 86.751 263.102 90.1447Z" fill="black"/>
<path d="M263.799 170.581L207.011 233.827C204.243 236.909 204.498 241.651 207.581 244.418C210.663 247.186 215.404 246.93 218.172 243.848L274.96 180.602C277.727 177.52 277.472 172.778 274.39 170.011C271.308 167.243 266.566 167.499 263.799 170.581Z" fill="black"/>
<path d="M425.216 220.896C414.72 220.896 406.101 218.421 399.36 213.472C392.619 208.437 388.992 201.269 388.48 191.968H415.232C415.488 195.125 416.427 197.429 418.048 198.88C419.669 200.331 421.76 201.056 424.32 201.056C426.624 201.056 428.501 200.501 429.952 199.392C431.488 198.197 432.256 196.576 432.256 194.528C432.256 191.883 431.019 189.835 428.544 188.384C426.069 186.933 422.059 185.312 416.512 183.52C410.624 181.557 405.845 179.68 402.176 177.888C398.592 176.011 395.435 173.323 392.704 169.824C390.059 166.24 388.736 161.589 388.736 155.872C388.736 150.069 390.187 145.12 393.088 141.024C395.989 136.843 400 133.685 405.12 131.552C410.24 129.419 416.043 128.352 422.528 128.352C433.024 128.352 441.387 130.827 447.616 135.776C453.931 140.64 457.301 147.509 457.728 156.384H430.464C430.379 153.653 429.525 151.605 427.904 150.24C426.368 148.875 424.363 148.192 421.888 148.192C420.011 148.192 418.475 148.747 417.28 149.856C416.085 150.965 415.488 152.544 415.488 154.592C415.488 156.299 416.128 157.792 417.408 159.072C418.773 160.267 420.437 161.333 422.4 162.272C424.363 163.125 427.264 164.235 431.104 165.6C436.821 167.563 441.515 169.525 445.184 171.488C448.939 173.365 452.139 176.053 454.784 179.552C457.515 182.965 458.88 187.317 458.88 192.608C458.88 197.984 457.515 202.805 454.784 207.072C452.139 211.339 448.256 214.709 443.136 217.184C438.101 219.659 432.128 220.896 425.216 220.896ZM517.775 147.552C525.967 147.552 532.452 150.325 537.231 155.872C542.095 161.333 544.527 168.757 544.527 178.144V220H519.439V181.472C519.439 177.376 518.372 174.176 516.239 171.872C514.106 169.483 511.247 168.288 507.663 168.288C503.908 168.288 500.964 169.483 498.831 171.872C496.698 174.176 495.631 177.376 495.631 181.472V220H470.543V125.28H495.631V158.432C497.85 155.189 500.836 152.587 504.591 150.624C508.431 148.576 512.826 147.552 517.775 147.552ZM554.197 184.032C554.197 176.608 555.52 170.123 558.165 164.576C560.896 159.029 564.565 154.763 569.173 151.776C573.866 148.789 579.072 147.296 584.789 147.296C589.738 147.296 594.005 148.277 597.589 150.24C601.173 152.203 603.946 154.848 605.909 158.176V148.192H630.997V220H605.909V210.016C603.946 213.344 601.13 215.989 597.461 217.952C593.877 219.915 589.653 220.896 584.789 220.896C579.072 220.896 573.866 219.403 569.173 216.416C564.565 213.429 560.896 209.163 558.165 203.616C555.52 197.984 554.197 191.456 554.197 184.032ZM605.909 184.032C605.909 179.424 604.629 175.797 602.069 173.152C599.594 170.507 596.522 169.184 592.853 169.184C589.098 169.184 585.984 170.507 583.509 173.152C581.034 175.712 579.797 179.339 579.797 184.032C579.797 188.64 581.034 192.309 583.509 195.04C585.984 197.685 589.098 199.008 592.853 199.008C596.522 199.008 599.594 197.685 602.069 195.04C604.629 192.395 605.909 188.725 605.909 184.032ZM641.197 184.032C641.197 176.608 642.52 170.123 645.165 164.576C647.896 159.029 651.608 154.763 656.301 151.776C660.994 148.789 666.2 147.296 671.917 147.296C676.525 147.296 680.621 148.277 684.205 150.24C687.874 152.117 690.733 154.72 692.781 158.048V125.28H717.997V220H692.781V210.016C690.818 213.344 688.045 215.989 684.461 217.952C680.877 219.915 676.653 220.896 671.789 220.896C666.072 220.896 660.866 219.403 656.173 216.416C651.565 213.429 647.896 209.163 645.165 203.616C642.52 197.984 641.197 191.456 641.197 184.032ZM692.909 184.032C692.909 179.424 691.629 175.797 689.069 173.152C686.594 170.507 683.522 169.184 679.853 169.184C676.098 169.184 672.984 170.507 670.509 173.152C668.034 175.712 666.797 179.339 666.797 184.032C666.797 188.64 668.034 192.309 670.509 195.04C672.984 197.685 676.098 199.008 679.853 199.008C683.522 199.008 686.594 197.685 689.069 195.04C691.629 192.395 692.909 188.725 692.909 184.032ZM728.197 184.032C728.197 176.608 729.733 170.123 732.805 164.576C735.877 159.029 740.144 154.763 745.605 151.776C751.152 148.789 757.466 147.296 764.549 147.296C773.68 147.296 781.36 149.813 787.589 154.848C793.818 159.797 797.829 166.752 799.621 175.712H772.997C771.461 171.019 768.474 168.672 764.037 168.672C760.88 168.672 758.362 169.995 756.485 172.64C754.693 175.2 753.797 178.997 753.797 184.032C753.797 189.067 754.693 192.907 756.485 195.552C758.362 198.197 760.88 199.52 764.037 199.52C768.56 199.52 771.546 197.173 772.997 192.48H799.621C797.829 201.355 793.818 208.309 787.589 213.344C781.36 218.379 773.68 220.896 764.549 220.896C757.466 220.896 751.152 219.403 745.605 216.416C740.144 213.429 735.877 209.163 732.805 203.616C729.733 198.069 728.197 191.541 728.197 184.032ZM857.019 147.552C865.296 147.552 871.867 150.325 876.731 155.872C881.595 161.333 884.027 168.757 884.027 178.144V220H858.939V181.472C858.939 177.376 857.872 174.176 855.739 171.872C853.606 169.483 850.747 168.288 847.163 168.288C843.408 168.288 840.464 169.483 838.331 171.872C836.198 174.176 835.131 177.376 835.131 181.472V220H810.043V148.192H835.131V158.432C837.35 155.189 840.336 152.587 844.091 150.624C847.846 148.576 852.155 147.552 857.019 147.552ZM946.869 129.76V182.112C946.869 186.976 947.978 190.731 950.197 193.376C952.501 196.021 955.957 197.344 960.565 197.344C965.173 197.344 968.629 196.021 970.933 193.376C973.322 190.645 974.517 186.891 974.517 182.112V129.76H999.605V182.112C999.605 190.389 997.856 197.472 994.357 203.36C990.858 209.163 986.08 213.557 980.021 216.544C974.048 219.445 967.392 220.896 960.053 220.896C952.714 220.896 946.144 219.445 940.341 216.544C934.624 213.557 930.101 209.163 926.773 203.36C923.53 197.557 921.909 190.475 921.909 182.112V129.76H946.869ZM1038.51 129.76V220H1013.42V129.76H1038.51Z" fill="white"/>
</svg>
