<svg width="283" height="35" viewBox="0 0 283 35" fill="none" xmlns="http://www.w3.org/2000/svg">
<path d="M29.1659 0C21.3883 0 16.5274 3.88883 14.5832 11.667C17.5 7.77765 20.9031 6.31928 24.7919 7.2919C27.0106 7.84603 28.5964 9.45658 30.3519 11.2381C33.2113 14.1405 36.5212 17.5 43.7503 17.5C51.5279 17.5 56.3888 13.6112 58.3335 5.83297C55.4168 9.72234 52.0137 11.1807 48.1249 10.2081C45.9061 9.65397 44.3204 8.04342 42.5648 6.26193C39.7049 3.35951 36.3955 0 29.1659 0ZM14.5832 17.5C6.80559 17.5 1.94469 21.3888 0 29.167C2.91676 25.2777 6.31928 23.8193 10.2081 24.7919C12.4274 25.3471 14.0126 26.9566 15.7681 28.7381C18.6276 31.6405 21.938 35 29.1665 35C36.9447 35 41.8056 31.1112 43.7503 23.333C40.8335 27.2223 37.4304 28.6807 33.5416 27.7081C31.3229 27.154 29.7372 25.5434 27.9816 23.7625C25.1222 20.8595 21.8123 17.5 14.5832 17.5Z" fill="black"/>
<path d="M87.495 14.7475H82.4053V24.5994C82.4053 27.2267 84.1289 27.1854 87.495 27.0211V31.0031C80.6812 31.8241 77.9717 29.9356 77.9717 24.5994V14.7475H74.1948V10.4783H77.9717V4.96453L82.4048 3.65116V10.4783H87.495V14.7475ZM106.899 10.4783H111.332V31.0036H106.899V28.0483C105.339 30.2234 102.917 31.5374 99.7145 31.5374C94.1324 31.5374 89.4937 26.8165 89.4937 20.7415C89.4937 14.6251 94.1324 9.94563 99.7151 9.94563C102.917 9.94563 105.339 11.259 106.899 13.3934V10.4783ZM100.413 27.3094C104.107 27.3094 106.899 24.5586 106.899 20.7415C106.899 16.9243 104.107 14.1735 100.413 14.1735C96.7178 14.1735 93.9268 16.9238 93.9268 20.7415C93.9268 24.5592 96.7184 27.3094 100.413 27.3094ZM118.721 7.39939C117.16 7.39939 115.888 6.08547 115.888 4.56644C115.89 3.81569 116.189 3.09611 116.72 2.56524C117.251 2.03438 117.97 1.7355 118.721 1.73404C119.472 1.7355 120.191 2.03438 120.722 2.56524C121.253 3.09611 121.552 3.81569 121.553 4.56644C121.553 6.08547 120.281 7.39939 118.721 7.39939ZM116.504 31.0025V10.4783H120.937V31.0036L116.504 31.0025ZM126.068 31.0025V1.03711H130.502V31.0031L126.068 31.0025ZM159.278 10.4777H163.957L157.513 31.0036H153.161L148.892 17.1697L144.582 31.0036H140.231L133.786 10.4788H138.466L142.448 24.6408L146.758 10.4788H150.986L155.255 24.6408L159.278 10.4777ZM169.458 7.39939C167.898 7.39939 166.626 6.08547 166.626 4.56644C166.627 3.81569 166.926 3.09611 167.457 2.56524C167.988 2.03438 168.707 1.7355 169.458 1.73404C170.209 1.7355 170.928 2.03438 171.459 2.56524C171.99 3.09611 172.289 3.81569 172.291 4.56644C172.291 6.08547 171.018 7.39939 169.458 7.39939ZM167.242 31.0025V10.4783H171.675V31.0036L167.242 31.0025ZM187.602 9.94397C192.199 9.94397 195.483 13.0642 195.483 18.4004V31.0025H191.05V18.8525C191.05 15.7328 189.244 14.0908 186.452 14.0908C183.538 14.0908 181.239 15.815 181.239 20.0016V31.0036H176.806V10.4783H181.239V13.1055C182.594 10.9712 184.811 9.94452 187.602 9.94452L187.602 9.94397ZM216.501 2.26832H220.934V31.0036H216.501V28.0483C214.941 30.2234 212.519 31.5374 209.317 31.5374C203.735 31.5374 199.096 26.8165 199.096 20.7415C199.096 14.6251 203.735 9.94563 209.317 9.94563C212.519 9.94563 214.941 11.259 216.501 13.3934V2.26832ZM210.015 27.3094C213.709 27.3094 216.501 24.5586 216.501 20.7415C216.501 16.9243 213.709 14.1735 210.015 14.1735C206.321 14.1735 203.529 16.9238 203.529 20.7415C203.529 24.5592 206.32 27.3094 210.015 27.3094ZM235.794 31.5374C229.595 31.5374 224.957 26.8165 224.957 20.7415C224.957 14.6251 229.595 9.94563 235.794 9.94563C239.817 9.94563 243.306 12.0386 244.948 15.2405L241.13 17.457C240.227 15.5283 238.216 14.2965 235.753 14.2965C232.14 14.2965 229.39 17.0467 229.39 20.7415C229.39 24.4362 232.14 27.1859 235.753 27.1859C238.216 27.1859 240.227 25.9134 241.213 24.0255L245.03 26.2006C243.306 29.4438 239.817 31.5374 235.794 31.5374H235.794ZM252.337 16.1436C252.337 19.8791 263.379 17.6213 263.379 25.2159C263.379 29.3208 259.808 31.5374 255.375 31.5374C251.27 31.5374 248.314 29.6903 247 26.7349L250.818 24.5178C251.475 26.3649 253.117 27.4732 255.375 27.4732C257.345 27.4732 258.864 26.8171 258.864 25.1745C258.864 21.5211 247.821 23.5739 247.821 16.2258C247.821 12.3673 251.146 9.94563 255.333 9.94563C258.699 9.94563 261.491 11.5049 262.927 14.2144L259.192 16.3079C258.453 14.7073 257.017 13.9679 255.333 13.9679C253.733 13.9679 252.337 14.6659 252.337 16.1436ZM271.261 16.1436C271.261 19.8791 282.303 17.6213 282.303 25.2159C282.303 29.3208 278.732 31.5374 274.298 31.5374C270.193 31.5374 267.238 29.6903 265.924 26.7349L269.742 24.5178C270.398 26.3649 272.041 27.4732 274.298 27.4732C276.269 27.4732 277.787 26.8171 277.787 25.1745C277.787 21.5211 266.745 23.5739 266.745 16.2258C266.745 12.3673 270.07 9.94563 274.257 9.94563C277.623 9.94563 280.415 11.5049 281.851 14.2144L278.116 16.3079C277.377 14.7073 275.94 13.9679 274.257 13.9679C272.656 13.9679 271.261 14.6659 271.261 16.1436Z" fill="black"/>
</svg>
