<svg width="512" height="64" viewBox="0 0 512 64" fill="none" xmlns="http://www.w3.org/2000/svg">
<g clip-path="url(#clip0_12_12)">
<path d="M52.898 0C38.792 0 29.976 7.053 26.45 21.16C31.74 14.106 37.912 11.461 44.965 13.225C48.989 14.23 51.865 17.151 55.049 20.382C60.235 25.646 66.238 31.739 79.349 31.739C93.455 31.739 102.271 24.686 105.798 10.579C100.508 17.633 94.336 20.278 87.283 18.514C83.259 17.509 80.383 14.588 77.199 11.357C72.012 6.093 66.01 0 52.898 0ZM26.45 31.739C12.344 31.739 3.52798 38.792 0.000976562 52.899C5.29098 45.845 11.462 43.2 18.515 44.964C22.54 45.971 25.415 48.89 28.599 52.121C33.785 57.385 39.789 63.478 52.899 63.478C67.006 63.478 75.822 56.425 79.349 42.318C74.059 49.372 67.887 52.017 60.834 50.253C56.81 49.248 53.934 46.327 50.75 43.097C45.564 37.832 39.561 31.739 26.45 31.739Z" fill="white"/>
<path d="M158.687 26.747H149.456V44.615C149.456 49.38 152.582 49.305 158.687 49.007V56.229C146.329 57.718 141.415 54.293 141.415 44.615V26.747H134.565V19.004H141.415V9.00398L149.455 6.62198V19.004H158.687V26.747ZM193.879 19.004H201.919V56.23H193.879V50.87C191.049 54.815 186.657 57.198 180.849 57.198C170.725 57.198 162.312 48.636 162.312 37.618C162.312 26.525 170.725 18.038 180.85 18.038C186.657 18.038 191.05 20.42 193.879 24.291V19.004ZM182.115 49.53C188.815 49.53 193.879 44.541 193.879 37.618C193.879 30.695 188.816 25.706 182.115 25.706C175.414 25.706 170.352 30.694 170.352 37.618C170.352 44.542 175.415 49.53 182.115 49.53ZM215.32 13.42C212.49 13.42 210.183 11.037 210.183 8.28198C210.186 6.92038 210.728 5.6153 211.691 4.65249C212.653 3.68969 213.958 3.14762 215.32 3.14498C216.682 3.14762 217.987 3.68969 218.949 4.65249C219.912 5.6153 220.454 6.92038 220.457 8.28198C220.457 11.037 218.149 13.42 215.32 13.42ZM211.3 56.228V19.004H219.34V56.23L211.3 56.228ZM228.646 56.228V1.88098H236.687V56.229L228.646 56.228ZM288.876 19.003H297.363L285.675 56.23H277.783L270.04 31.14L262.223 56.23H254.332L242.643 19.005H251.13L258.352 44.69L266.169 19.005H273.837L281.58 44.69L288.876 19.003ZM307.34 13.42C304.51 13.42 302.203 11.037 302.203 8.28198C302.206 6.92038 302.748 5.6153 303.711 4.65249C304.673 3.68969 305.978 3.14762 307.34 3.14498C308.702 3.14762 310.007 3.68969 310.969 4.65249C311.932 5.6153 312.474 6.92038 312.477 8.28198C312.477 11.037 310.169 13.42 307.34 13.42ZM303.32 56.228V19.004H311.36V56.23L303.32 56.228ZM340.246 18.035C348.585 18.035 354.541 23.694 354.541 33.372V56.228H346.501V34.192C346.501 28.534 343.224 25.556 338.161 25.556C332.876 25.556 328.707 28.683 328.707 36.276V56.23H320.667V19.004H328.707V23.769C331.164 19.898 335.184 18.036 340.247 18.036L340.246 18.035ZM392.66 4.11398H400.7V56.23H392.66V50.87C389.83 54.815 385.438 57.198 379.631 57.198C369.506 57.198 361.093 48.636 361.093 37.618C361.093 26.525 369.506 18.038 379.631 18.038C385.438 18.038 389.831 20.42 392.66 24.291V4.11398ZM380.896 49.53C387.596 49.53 392.659 44.541 392.659 37.618C392.659 30.695 387.596 25.706 380.896 25.706C374.196 25.706 369.133 30.694 369.133 37.618C369.133 44.542 374.195 49.53 380.896 49.53ZM427.65 57.198C416.408 57.198 407.996 48.636 407.996 37.618C407.996 26.525 416.408 18.038 427.65 18.038C434.946 18.038 441.275 21.834 444.253 27.641L437.329 31.661C435.691 28.163 432.043 25.929 427.576 25.929C421.024 25.929 416.036 30.917 416.036 37.618C416.036 44.319 421.024 49.306 427.576 49.306C432.043 49.306 435.691 46.998 437.478 43.574L444.401 47.519C441.275 53.401 434.946 57.198 427.651 57.198H427.65ZM457.653 29.279C457.653 36.054 477.68 31.959 477.68 45.733C477.68 53.178 471.203 57.198 463.163 57.198C455.718 57.198 450.357 53.848 447.975 48.488L454.899 44.467C456.09 47.817 459.068 49.827 463.163 49.827C466.736 49.827 469.491 48.637 469.491 45.658C469.491 39.032 449.464 42.755 449.464 29.428C449.464 22.43 455.494 18.038 463.088 18.038C469.193 18.038 474.256 20.866 476.861 25.78L470.087 29.577C468.747 26.674 466.141 25.333 463.088 25.333C460.185 25.333 457.653 26.599 457.653 29.279ZM491.975 29.279C491.975 36.054 512.002 31.959 512.002 45.733C512.002 53.178 505.525 57.198 497.484 57.198C490.039 57.198 484.679 53.848 482.296 48.488L489.22 44.467C490.411 47.817 493.39 49.827 497.484 49.827C501.058 49.827 503.812 48.637 503.812 45.658C503.812 39.032 483.785 42.755 483.785 29.428C483.785 22.43 489.815 18.038 497.41 18.038C503.514 18.038 508.577 20.866 511.183 25.78L504.408 29.577C503.068 26.674 500.462 25.333 497.41 25.333C494.506 25.333 491.975 26.599 491.975 29.279Z" fill="white"/>
</g>
<defs>
<clipPath id="clip0_12_12">
<rect width="512" height="63.478" fill="white"/>
</clipPath>
</defs>
</svg>
