<svg width="517" height="55" viewBox="0 0 517 55" fill="none" xmlns="http://www.w3.org/2000/svg">
<path fill-rule="evenodd" clip-rule="evenodd" d="M161.133 24.7457H151.867V42.4576C151.867 47.2034 155.042 47.1186 161.133 46.8644V54.0678C148.693 55.5085 143.803 52.1186 143.803 42.5424V24.8305H136.939V17.1186H143.803V7.20339L151.867 4.83049V17.1186H161.133V24.7457ZM196.481 17.0339H204.546V53.983H196.481V48.6441C193.65 52.5424 189.188 54.9152 183.354 54.9152C173.145 54.9152 164.737 46.4407 164.737 35.5085C164.737 24.4915 173.23 16.1017 183.354 16.1017C189.188 16.1017 193.65 18.4746 196.481 22.2881V17.0339ZM184.641 47.3729C191.419 47.3729 196.481 42.4576 196.481 35.5085C196.481 28.6441 191.419 23.6441 184.641 23.6441C177.949 23.6441 172.801 28.5593 172.801 35.5085C172.801 42.4576 177.949 47.3729 184.641 47.3729ZM218.016 11.5254C215.184 11.5254 212.868 9.15255 212.868 6.44068C212.868 3.64407 215.184 1.35594 218.016 1.35594C220.847 1.35594 223.163 3.64407 223.163 6.44068C223.249 9.15255 220.847 11.5254 218.016 11.5254ZM213.983 53.983V17.0339H222.048V53.983H213.983ZM231.4 53.983V0H239.465V53.983H231.4ZM291.971 17.0339H300.465L288.711 53.983H280.818L273.011 29.0678L265.117 53.983H257.224L245.47 17.0339H253.964L261.257 42.5424L269.15 17.0339H276.871L284.679 42.5424L291.971 17.0339ZM310.589 11.5254C307.758 11.5254 305.441 9.15255 305.441 6.44068C305.441 3.64407 307.758 1.35594 310.589 1.35594C313.42 1.35594 315.737 3.64407 315.737 6.44068C315.737 9.15255 313.42 11.5254 310.589 11.5254ZM306.471 53.983V17.0339H314.536V53.983H306.471ZM343.62 16.1017C352.028 16.1017 358.034 21.6949 358.034 31.3559V54.0678H349.969V32.1186C349.969 26.5254 346.709 23.5593 341.561 23.5593C336.242 23.5593 332.038 26.6949 332.038 34.2373V54.0678H323.973V17.1186H332.038V21.8644C334.526 17.9661 338.558 16.1017 343.62 16.1017ZM396.299 2.28812H404.364V54.0678H396.299V48.7288C393.468 52.6271 389.006 55 383.172 55C372.962 55 364.554 46.5254 364.554 35.5932C364.554 24.5763 373.048 16.1864 383.172 16.1864C389.006 16.1864 393.468 18.5593 396.299 22.3729V2.28812ZM384.545 47.3729C391.323 47.3729 396.385 42.4576 396.385 35.5085C396.385 28.6441 391.323 23.6441 384.545 23.6441C377.853 23.6441 372.705 28.5593 372.705 35.5085C372.705 42.4576 377.767 47.3729 384.545 47.3729ZM431.475 55C420.15 55 411.742 46.5254 411.742 35.5932C411.742 24.5763 420.236 16.1864 431.475 16.1864C438.853 16.1864 445.202 19.9153 448.205 25.7627L441.256 29.7458C439.626 26.2712 435.936 24.0678 431.475 24.0678C424.869 24.0678 419.893 28.9831 419.893 35.678C419.893 42.3729 424.869 47.2881 431.475 47.2881C435.936 47.2881 439.626 45 441.427 41.6102L448.377 45.5085C445.202 51.1864 438.853 55 431.475 55ZM461.675 27.2881C461.675 33.983 481.837 29.9153 481.837 43.6441C481.837 51.017 475.316 55 467.252 55C459.787 55 454.382 51.6949 451.98 46.3559L458.93 42.3729C460.131 45.678 463.133 47.7119 467.252 47.7119C470.855 47.7119 473.601 46.5254 473.601 43.5593C473.601 36.9492 453.439 40.678 453.439 27.4576C453.439 20.5085 459.53 16.1864 467.166 16.1864C473.343 16.1864 478.405 18.983 480.979 23.8983L474.201 27.6271C472.828 24.7458 470.255 23.3898 467.166 23.3898C464.249 23.3051 461.675 24.5763 461.675 27.2881ZM496.165 27.2881C496.165 33.983 516.327 29.9153 516.327 43.6441C516.327 51.017 509.806 55 501.741 55C494.277 55 488.872 51.6949 486.47 46.3559L493.419 42.3729C494.62 45.678 497.623 47.7119 501.741 47.7119C505.345 47.7119 508.09 46.5254 508.09 43.5593C508.09 36.9492 487.928 40.678 487.928 27.4576C487.928 20.5085 494.02 16.1864 501.656 16.1864C507.833 16.1864 512.895 18.983 515.469 23.8983L508.691 27.6271C507.318 24.7458 504.744 23.3898 501.656 23.3898C498.739 23.3051 496.165 24.5763 496.165 27.2881Z" fill="black"/>
<path fill-rule="evenodd" clip-rule="evenodd" d="M53.8776 0C39.5392 0 30.5016 6.144 26.9388 18.358C32.3265 12.214 38.5833 9.91925 45.7959 11.4738C49.8802 12.362 52.8348 14.8789 56.05 17.6918C61.3509 22.2813 67.4338 27.537 80.8163 27.537C95.1547 27.537 104.192 21.393 107.755 9.179C102.367 15.323 96.1106 17.6178 88.898 16.0633C84.8137 15.175 81.8591 12.6581 78.6438 9.84521C73.343 5.25571 67.26 0 53.8776 0ZM26.9388 27.463C12.6004 27.463 3.56287 33.607 0 45.821C5.38775 39.677 11.6445 37.3822 18.8571 38.9368C22.9414 39.825 25.896 42.3419 29.1113 45.1548C34.4121 49.7443 40.4951 55 53.8776 55C68.2159 55 77.2535 48.856 80.8163 36.642C75.4286 42.786 69.1718 45.0808 61.9592 43.5262C57.8749 42.638 54.9203 40.1211 51.7051 37.3082C46.4042 32.7927 40.3213 27.463 26.9388 27.463Z" fill="black"/>
</svg>
